<svg version="1.1" id="Layer_1" xmlns="http://www.w3.org/2000/svg" xmlns:xlink="http://www.w3.org/1999/xlink" x="0px" y="0px"
	 width="100%" viewBox="0 0 467 147" enable-background="new 0 0 467 147" xml:space="preserve">
<path fill="#D30712" opacity="1.000000" stroke="none" 
	d="
M73.286591,147.743637 
	C73.000000,148.000000 72.500000,148.000000 72.250000,148.000000 
	C70.099968,146.553604 69.788391,144.411972 69.407127,142.260498 
	C65.807579,121.948280 63.249928,101.486526 60.467472,81.054611 
	C59.345913,72.818863 58.472221,64.540390 57.096668,56.352501 
	C55.926754,49.388638 55.760849,42.462448 56.822750,35.589901 
	C58.270309,26.221418 59.426739,16.817039 60.802757,7.441792 
	C61.118874,5.287999 61.647896,3.186662 63.685730,1.317846 
	C73.687561,1.000000 83.375122,1.000000 93.531342,1.000000 
	C99.756783,4.638634 100.143173,11.108710 102.345917,17.027044 
	C103.206894,20.753094 105.902756,23.198122 106.849182,26.867065 
	C107.830231,32.843010 110.607117,37.820457 112.580185,43.457451 
	C113.331490,45.772774 113.192299,47.761269 112.490349,50.065807 
	C109.472832,55.784107 106.982498,61.309818 105.891953,67.723228 
	C104.775345,72.806458 100.169632,76.202400 100.736397,81.955856 
	C99.015427,86.299873 96.586685,89.931252 95.268158,94.449814 
	C94.382698,99.460724 91.952766,103.510239 90.209381,108.213524 
	C89.243866,114.382278 86.009895,119.253754 83.699120,124.892548 
	C82.140312,130.553986 80.415085,135.751724 77.574097,140.920013 
	C77.160065,143.973129 76.147064,146.221725 73.286591,147.743637 
z"/>
<path fill="#AC1016" opacity="1.000000" stroke="none" 
	d="
M63.531342,1.000000 
	C62.239758,14.338303 60.884590,27.747778 58.558483,40.986656 
	C57.282330,48.249794 59.534340,54.888733 60.406597,61.713623 
	C63.817417,88.401253 67.195389,115.103218 71.778748,141.628815 
	C72.087540,143.415924 71.943504,145.281281 72.005043,147.555115 
	C58.979107,148.000000 45.958210,148.000000 32.468658,148.000000 
	C29.392422,145.970825 29.603598,143.016983 29.633213,140.238068 
	C29.809853,123.662773 28.913357,107.075241 30.166182,90.511620 
	C30.203524,90.017944 30.062445,89.523750 29.883625,88.578369 
	C29.486860,87.249908 29.502594,86.368362 29.803768,85.087517 
	C36.200771,73.984367 41.767078,62.841034 48.527863,52.394436 
	C51.247311,48.192406 51.285767,44.590210 48.627991,39.981899 
	C43.324074,30.785465 36.967392,22.138521 33.181995,12.090956 
	C32.644947,10.665482 31.135843,9.920228 30.208645,8.266042 
	C29.897146,7.112772 29.800308,6.312515 29.908039,5.091758 
	C30.399685,3.629699 30.642393,2.504527 31.713745,1.316472 
	C42.354229,1.000000 52.708454,1.000000 63.531342,1.000000 
z"/>
<path fill="#003D80" opacity="1.000000" stroke="none" 
	d="
M172.653595,1.356523 
	C179.687637,1.000000 186.375290,1.000000 193.531464,1.000000 
	C195.050293,2.045877 195.586853,3.265088 195.185638,5.174191 
	C195.123932,8.857467 194.732544,12.082380 193.756119,15.637020 
	C192.401276,27.852030 191.012146,28.258312 205.253311,30.564604 
	C214.866592,32.121429 224.739761,32.483261 234.175812,36.684860 
	C235.856949,40.901623 235.393097,44.861034 234.784210,49.226036 
	C232.768646,52.161800 230.230957,52.192253 227.466095,51.670914 
	C217.334991,49.760593 207.152924,48.140026 196.972610,46.523640 
	C193.919128,46.038822 190.336334,45.192764 189.780579,50.463249 
	C190.165726,52.907955 189.962723,55.020317 190.512634,57.449081 
	C191.345001,59.584587 190.807465,61.532841 191.570801,63.689285 
	C192.323074,66.209297 192.572037,68.404633 192.818268,71.034378 
	C196.436295,94.388428 199.443314,117.398323 202.872360,140.346924 
	C203.238251,142.795517 203.711761,145.326279 201.309753,147.682495 
	C191.645767,148.000000 182.291550,148.000000 172.468658,148.000000 
	C170.417053,146.624481 170.550583,144.776154 170.552368,142.933121 
	C170.595291,98.546844 170.521454,54.160511 170.624313,9.774352 
	C170.630692,7.023681 170.107086,4.053274 172.653595,1.356523 
z"/>
<path fill="#8F2135" opacity="1.000000" stroke="none" 
	d="
M32.283974,83.633240 
	C32.029560,84.788139 31.987509,85.492050 31.930552,86.548248 
	C28.379852,98.987885 20.519753,108.813057 14.699253,119.703445 
	C12.364639,124.071587 9.866669,128.367645 7.285519,132.596939 
	C5.894973,134.875397 5.125770,137.977737 1.336344,138.156693 
	C1.000000,93.784523 1.035262,49.568958 0.928202,5.353737 
	C0.920259,2.073392 1.171948,0.643048 5.131249,0.871724 
	C12.752109,1.311879 20.416403,1.000000 28.531342,1.000000 
	C30.174021,1.957342 31.145758,3.062881 31.753714,4.827980 
	C31.949587,5.816215 31.991081,6.524500 32.050228,7.587112 
	C33.833904,12.147906 34.424728,16.558825 34.426205,21.087931 
	C34.431622,37.705654 34.402737,54.323456 34.446007,70.941025 
	C34.456963,75.149506 33.782242,79.203171 32.283974,83.633240 
z"/>
<path fill="#004C97" opacity="1.000000" stroke="none" 
	d="
M201.468658,148.000000 
	C199.606140,131.920227 196.641281,116.052391 194.555176,100.066734 
	C193.329636,90.675575 191.410248,81.370682 190.961792,71.433640 
	C192.216583,68.951584 194.083649,68.846039 196.165756,69.282028 
	C206.814377,71.511818 217.586670,73.023689 228.318481,74.767799 
	C230.349304,75.097855 231.894180,76.385239 234.022705,77.492943 
	C236.496964,86.336906 235.474594,94.992081 235.234421,103.548187 
	C234.927734,114.473663 234.354462,125.390511 234.492706,136.765625 
	C234.526871,139.840698 233.460510,142.526474 234.903351,145.495575 
	C234.935837,146.428085 234.779770,146.926178 234.246338,147.691559 
	C223.312439,148.000000 212.624878,148.000000 201.468658,148.000000 
z"/>
<path fill="#003C85" opacity="1.000000" stroke="none" 
	d="
M172.531433,1.000000 
	C172.999985,46.926880 172.998718,92.853760 173.002975,138.780640 
	C173.003250,141.610748 173.094910,144.445541 172.088989,147.591827 
	C165.978851,148.000000 159.957703,148.000000 153.468277,148.000000 
	C151.064056,146.141693 151.533936,143.713852 151.516724,141.440750 
	C151.392502,125.047806 151.703934,108.653046 151.317490,92.260605 
	C151.297791,91.424973 151.336868,90.614037 150.656250,89.511459 
	C148.223175,86.555275 149.378479,83.673004 150.119278,81.093269 
	C151.212677,77.285614 152.191742,73.408882 153.982697,69.391403 
	C156.319824,65.081383 155.896103,60.385315 157.997711,56.037182 
	C160.870789,49.206417 160.284988,42.661198 158.305511,35.762833 
	C155.507736,31.614561 156.866440,26.679832 154.377045,22.419380 
	C152.308197,17.078728 151.277786,11.847938 149.777710,6.753654 
	C149.271988,5.036194 148.834030,3.139877 150.718033,1.302314 
	C158.020950,1.000000 165.041901,1.000000 172.531433,1.000000 
z"/>
<path fill="#219A30" opacity="1.000000" stroke="none" 
	d="
M449.340210,147.698822 
	C441.979034,148.000000 434.958099,148.000000 427.468567,148.000000 
	C424.118958,146.264175 421.955627,143.940201 420.865204,140.336548 
	C420.645020,139.612686 420.547180,139.196671 420.368713,138.484314 
	C420.107391,137.802994 419.950012,137.411438 419.711182,136.698456 
	C419.491913,135.227737 419.488800,134.077759 419.780884,132.578812 
	C422.165222,126.006119 422.333496,119.764763 419.909058,113.148743 
	C420.664734,103.023422 423.654541,93.620651 425.080414,83.979263 
	C426.229187,76.211899 430.432007,69.472923 431.231201,61.357861 
	C431.217712,60.724846 431.245667,60.470703 431.396393,59.852215 
	C432.868256,57.696060 434.619537,56.129612 434.976166,53.329086 
	C435.376251,52.811165 435.578827,52.635151 436.166077,52.318546 
	C436.827576,52.169117 437.104401,52.160282 437.785706,52.263596 
	C440.620087,53.817646 440.816589,56.433502 441.435577,58.766964 
	C442.742767,63.694725 444.222565,68.592224 444.750885,74.137939 
	C450.289276,96.325409 452.928284,118.404320 452.348114,140.846649 
	C452.283508,143.346298 452.337830,145.935120 449.340210,147.698822 
z"/>
<path fill="#238B34" opacity="1.000000" stroke="none" 
	d="
M449.469360,148.000000 
	C450.776489,138.756943 450.092865,129.465134 449.535583,120.178261 
	C448.617889,104.885696 445.590302,89.895851 442.992065,74.424896 
	C443.399597,72.878510 444.084320,71.748848 445.230499,71.569160 
	C452.616089,70.411385 460.029175,69.215569 467.641052,72.651413 
	C468.000000,96.887383 467.956482,120.774956 468.063446,144.661850 
	C468.074860,147.208939 467.875702,148.297775 464.862091,148.091782 
	C459.908722,147.753174 454.915283,148.000000 449.469360,148.000000 
z"/>
<path fill="#42A1CC" opacity="1.000000" stroke="none" 
	d="
M296.681976,1.325805 
	C307.020905,1.000000 317.041779,1.000000 327.531342,1.000000 
	C330.533844,3.088801 330.877960,6.109482 331.294037,9.038016 
	C332.199768,15.412820 333.161072,21.780413 333.920624,28.618868 
	C333.570129,30.858425 334.388031,32.694424 333.433563,34.855400 
	C327.286102,39.298595 320.037872,39.567226 313.588837,42.118774 
	C311.905609,42.784733 310.074524,43.117409 308.317688,43.627480 
	C299.720245,46.123638 299.312500,45.993771 293.506470,38.736259 
	C292.889709,37.167831 292.853577,35.951721 292.962463,34.280998 
	C294.085022,27.234570 292.973206,20.522026 294.161499,13.478108 
	C295.056000,9.259357 293.553925,5.046713 296.681976,1.325805 
z"/>
<path fill="#843783" opacity="1.000000" stroke="none" 
	d="
M103.703514,67.377090 
	C105.838310,61.745365 106.233437,55.251762 110.631882,50.121346 
	C114.281593,49.511551 114.767708,52.152134 115.268188,54.314251 
	C117.519997,64.042259 119.755478,73.783104 120.959038,83.712051 
	C121.222305,85.883934 121.436562,88.006577 122.849220,90.265076 
	C125.190376,102.991432 127.531738,115.313957 129.841675,128.052856 
	C132.253128,134.049469 132.246353,139.960205 132.164978,146.260315 
	C131.867004,146.893066 131.710876,147.127625 131.277374,147.681091 
	C123.979050,148.000000 116.958107,148.000000 109.468582,148.000000 
	C106.225410,145.830215 106.622894,142.697922 106.611885,139.761551 
	C106.532349,118.549042 106.616562,97.336212 106.541679,76.123756 
	C106.530846,73.056427 107.112610,69.713814 103.703514,67.377090 
z"/>
<path fill="#3EAFD5" opacity="1.000000" stroke="none" 
	d="
M332.294189,29.325027 
	C330.032501,20.051149 329.003601,10.962032 328.000793,1.434478 
	C342.354218,1.000000 356.708466,1.000000 371.531342,1.000000 
	C375.070465,4.192997 372.654266,7.744484 372.346863,10.986858 
	C371.676971,18.053272 370.009521,25.010927 369.337250,32.101120 
	C369.255829,32.959999 368.841888,33.675209 367.786835,34.446209 
	C357.667175,29.718357 347.347504,31.386921 337.142975,31.937012 
	C335.087646,32.047810 333.655823,31.303827 332.294189,29.325027 
z"/>
<path fill="#8E1015" opacity="1.000000" stroke="none" 
	d="
M0.999998,138.486572 
	C9.826056,123.017395 18.637218,108.025978 27.496067,93.062790 
	C28.671322,91.077698 30.089043,89.236153 31.655056,87.114334 
	C31.944296,106.954582 31.972950,127.008629 32.000801,147.531342 
	C22.940424,148.000000 13.879000,147.897491 4.822364,148.060699 
	C2.002428,148.111542 0.360111,147.802094 0.946660,144.399689 
	C1.250009,142.640076 1.000000,140.785065 0.999998,138.486572 
z"/>
<path fill="#8DBB6E" opacity="1.000000" stroke="none" 
	d="
M393.738861,1.278571 
	C404.020905,1.000000 414.041779,1.000000 424.531342,1.000000 
	C425.700653,1.797286 426.680847,2.327885 427.298889,3.689725 
	C428.564758,8.465834 430.182587,12.741776 430.700836,17.711773 
	C431.762482,23.386023 434.912476,28.248039 433.487732,34.318909 
	C431.766693,37.009060 429.583405,36.735596 427.176514,36.697041 
	C419.525208,36.574486 411.758423,35.168766 403.855927,38.190655 
	C401.391022,37.962955 400.306030,36.698853 399.646484,34.458866 
	C399.430786,32.183517 398.556763,30.570375 397.623840,28.580624 
	C397.272797,27.783644 397.111328,27.318398 396.915466,26.486202 
	C396.563965,24.295887 396.537598,22.406246 395.620209,20.349548 
	C395.429382,19.353428 395.570587,18.691675 395.509216,17.713520 
	C395.417999,16.982756 395.364380,16.567095 395.237488,15.850283 
	C394.982117,14.951692 394.741974,14.383841 394.119568,13.650578 
	C393.674316,13.012527 393.495209,12.602737 393.250671,11.843763 
	C393.027496,11.056347 392.926422,10.594687 392.776367,9.769827 
	C392.835266,7.181611 391.428009,5.001195 392.747681,2.439373 
	C393.143860,1.941489 393.310791,1.749315 393.738861,1.278571 
z"/>
<path fill="#544293" opacity="1.000000" stroke="none" 
	d="
M131.485382,147.209946 
	C130.144791,141.260406 129.165390,135.527512 128.127945,129.399002 
	C129.341080,125.447464 128.578140,121.793678 128.577316,118.179344 
	C128.569016,82.043472 128.535690,45.907566 128.623459,9.771826 
	C128.630142,7.014642 128.113998,4.041429 130.659637,1.349954 
	C133.041672,1.000000 135.083328,1.000000 137.562500,1.000000 
	C140.904572,3.347367 140.368378,6.692325 140.380829,9.774232 
	C140.479416,34.200474 140.483505,58.627281 140.401230,83.053436 
	C140.363205,94.345985 140.911957,105.650299 139.948761,116.931274 
	C139.875778,117.786026 140.011795,118.580849 140.738495,119.708633 
	C141.686234,121.191750 142.104111,122.349648 141.905548,124.096466 
	C138.465149,129.503387 139.139236,135.648697 137.040588,140.988464 
	C135.979965,143.687073 135.674728,146.970581 131.485382,147.209946 
z"/>
<path fill="#5E4192" opacity="1.000000" stroke="none" 
	d="
M130.545898,1.000000 
	C130.999847,40.083546 131.005096,79.167091 130.990555,118.250641 
	C130.989212,121.875549 131.295578,125.596336 128.382935,128.832306 
	C124.858978,116.785339 122.890572,104.329689 120.959320,91.441589 
	C121.818962,86.188354 120.518692,81.416245 120.574455,76.604683 
	C120.823410,55.122211 120.047203,33.632263 121.035049,12.156046 
	C121.114876,10.420813 121.044968,8.840186 119.444061,7.177376 
	C118.138458,4.774388 118.769234,3.118553 120.665657,1.338938 
	C124.030594,1.000000 127.061188,1.000000 130.545898,1.000000 
z"/>
<path fill="#003887" opacity="1.000000" stroke="none" 
	d="
M233.384613,139.187805 
	C232.979568,118.987885 232.981888,98.966095 232.980530,78.476166 
	C230.737976,76.214577 230.707962,73.772827 231.007874,70.780991 
	C231.257172,68.482468 230.684753,66.706238 230.664978,64.443367 
	C231.264694,62.221336 230.854309,60.393417 231.061813,58.142456 
	C231.238358,55.297798 230.159531,52.685978 232.672882,50.332958 
	C232.996872,45.973618 232.996811,41.948177 232.995636,37.459312 
	C229.237701,33.227810 230.967407,28.543974 230.862457,23.690611 
	C230.689529,19.428177 230.442902,15.643072 230.865234,11.380619 
	C230.986237,7.774494 229.872574,4.450172 232.663879,1.345518 
	C235.041672,1.000000 237.083328,1.000000 239.562500,1.000000 
	C241.879456,2.450338 242.168961,4.527409 242.398193,6.706388 
	C242.931351,11.774259 243.531952,16.835056 243.994431,22.362011 
	C245.271072,31.085125 246.642059,39.347160 246.488953,48.203011 
	C245.567459,50.905926 246.353775,53.310455 245.676758,56.001038 
	C244.152130,59.097511 245.315369,61.982239 244.752625,65.142075 
	C242.899597,70.078941 245.043030,74.774277 244.013031,79.745087 
	C241.889679,83.139816 241.419800,86.350739 242.032440,89.967850 
	C242.786972,94.422729 241.037933,98.753128 240.724167,103.559998 
	C240.211731,107.817711 240.313858,111.761139 239.117004,115.954468 
	C236.459625,120.996643 237.955750,126.079216 237.399216,130.941742 
	C237.088989,133.652130 237.952240,136.654205 235.065582,139.034454 
	C234.378922,139.282364 234.085464,139.324142 233.384613,139.187805 
z"/>
<path fill="#4B4394" opacity="1.000000" stroke="none" 
	d="
M140.418274,121.105888 
	C137.066467,119.464134 138.043045,116.657257 138.039566,114.318253 
	C137.983826,76.858002 138.000107,39.397648 138.000000,1.468657 
	C140.370560,1.000000 142.741104,1.000000 145.555832,1.000000 
	C148.897903,3.351829 148.368240,6.694198 148.382492,9.780869 
	C148.497574,34.721539 148.355179,59.662746 148.490326,84.603432 
	C148.501907,86.738770 148.131180,88.936096 149.339661,91.364670 
	C150.003571,92.201447 150.265411,92.732933 150.419113,93.754799 
	C149.927399,96.302826 149.181793,98.361794 148.684265,100.893173 
	C147.245850,103.629280 147.518372,106.348656 146.634125,109.195740 
	C144.663834,111.465111 144.451065,113.939331 144.089584,116.343575 
	C143.763901,118.509743 143.396774,120.595139 140.418274,121.105888 
z"/>
<path fill="#3A79B5" opacity="1.000000" stroke="none" 
	d="
M233.621658,139.377258 
	C236.259720,132.838318 234.125458,126.195213 235.940903,119.968552 
	C236.347961,118.572449 236.255310,117.030655 236.632919,115.222076 
	C237.992615,114.510193 239.035156,114.958305 239.410660,115.864632 
	C241.318954,120.470551 245.159134,120.727943 249.309311,120.603165 
	C252.616196,120.503731 255.930420,120.647232 259.239044,120.592461 
	C263.853546,120.516090 268.154480,121.171989 271.622559,125.334549 
	C272.240326,126.196075 272.417114,126.773308 272.491211,127.862473 
	C272.955780,132.791824 273.759491,137.227737 273.343079,141.736450 
	C273.161774,143.699478 273.344391,145.778854 271.339722,147.650726 
	C258.979095,148.000000 246.958206,148.000000 234.468658,148.000000 
	C233.976044,147.547180 233.952072,147.094345 233.889709,146.303589 
	C232.643707,143.979645 232.887390,141.885468 233.621658,139.377258 
z"/>
<path fill="#298D3A" opacity="1.000000" stroke="none" 
	d="
M468.000000,72.531342 
	C459.943909,73.345802 451.829132,72.159004 443.407013,73.965454 
	C441.100006,67.189392 439.213348,60.372993 437.108582,53.253250 
	C436.689362,52.744617 436.488312,52.539333 436.002197,52.010632 
	C434.659546,50.138336 434.855316,48.406429 435.121735,46.277580 
	C436.878601,43.623531 436.735565,40.933811 437.207947,38.381367 
	C437.650940,35.987896 438.114685,33.528687 440.415222,31.543488 
	C444.708740,31.036852 445.056091,33.551888 444.860382,36.513432 
	C444.500916,41.954136 444.952484,42.460506 450.468018,42.570724 
	C454.295959,42.647224 458.126587,42.528042 461.954193,42.649357 
	C463.948029,42.712551 465.998688,42.672028 467.719543,44.725449 
	C468.000000,54.020893 468.000000,63.041790 468.000000,72.531342 
z"/>
<path fill="#00569E" opacity="1.000000" stroke="none" 
	d="
M242.398773,23.347115 
	C240.558456,16.070297 239.942291,9.027833 239.995239,1.459661 
	C250.020889,1.000000 260.041779,1.000000 270.531342,1.000000 
	C273.979614,3.379562 273.075928,6.845311 273.429932,10.412059 
	C272.491577,14.928092 273.873260,18.978111 273.210083,23.478039 
	C272.715851,25.122013 272.644745,26.387293 271.939941,27.946112 
	C270.315582,29.572706 268.521332,30.035118 267.126160,29.044193 
	C262.237823,25.572277 256.705505,26.596251 251.339935,26.389877 
	C248.206909,26.269377 244.999054,26.445189 242.398773,23.347115 
z"/>
<path fill="#16957C" opacity="1.000000" stroke="none" 
	d="
M417.245117,147.746490 
	C396.979095,148.000000 376.958221,148.000000 356.468658,148.000000 
	C355.420715,147.324783 355.041412,146.569962 355.153259,145.236725 
	C357.261383,141.412415 360.984650,140.900787 364.229523,140.050598 
	C380.142578,135.881241 395.985748,131.448257 411.923859,127.373169 
	C413.625702,126.938042 415.196564,127.068184 417.229462,127.509270 
	C417.901184,127.620720 418.166687,127.677299 418.799377,127.905960 
	C419.592255,128.407364 419.919830,128.814774 420.228699,129.676208 
	C420.468018,131.731918 419.021759,133.270721 420.010773,135.344299 
	C420.541260,136.554504 420.860443,137.455994 420.960510,138.786621 
	C420.962677,139.637268 420.923492,140.121704 420.741394,140.951950 
	C418.855560,142.996918 418.831543,145.578476 417.245117,147.746490 
z"/>
<path fill="#414494" opacity="1.000000" stroke="none" 
	d="
M149.402191,92.918236 
	C145.499207,90.021935 146.065018,85.846329 146.051468,82.009315 
	C145.957306,55.318920 146.001007,28.628040 146.000244,1.468657 
	C147.388885,1.000000 148.777786,1.000000 150.583344,1.000000 
	C152.660248,7.720304 154.320480,14.440607 156.014938,21.558407 
	C156.672791,33.923645 154.238083,45.905796 156.203613,57.864967 
	C156.767776,61.297585 154.829041,64.694687 156.074982,68.579208 
	C154.419815,75.102478 152.803467,81.171280 151.102280,87.619659 
	C151.560837,89.854248 151.912399,91.660660 149.402191,92.918236 
z"/>
<path fill="#853479" opacity="1.000000" stroke="none" 
	d="
M103.179977,67.627670 
	C105.647758,67.437065 106.013191,62.897198 108.227951,64.444870 
	C110.039062,65.710480 108.967140,68.832016 108.971207,71.120964 
	C109.016144,96.434807 108.999825,121.748756 109.000046,147.531342 
	C107.611107,148.000000 106.222221,148.000000 104.416664,148.000000 
	C100.474998,146.275192 100.637871,142.989899 100.619987,139.839951 
	C100.525887,123.260941 100.579910,106.681618 100.594742,90.102470 
	C100.597160,87.406021 100.591377,84.776276 98.316223,82.331337 
	C99.163536,77.033653 101.251686,72.518387 103.179977,67.627670 
z"/>
<path fill="#61AFC2" opacity="1.000000" stroke="none" 
	d="
M305.293030,147.724518 
	C299.977905,148.000000 294.955811,148.000000 289.466858,148.000000 
	C286.043915,145.513275 286.793579,142.245071 287.291321,138.644775 
	C290.123505,135.046265 294.163635,135.777206 297.554932,134.719528 
	C311.779724,130.283096 326.702606,128.392029 340.662933,122.961487 
	C341.283142,122.720230 341.973877,122.914413 342.997833,123.323669 
	C343.569183,123.769157 343.758331,123.995522 344.111481,124.633812 
	C344.606171,127.679871 344.484985,130.343750 344.680664,133.390320 
	C342.554504,136.432510 339.839417,137.676117 336.651245,138.517090 
	C326.233459,141.265045 315.753418,143.821854 305.293030,147.724518 
z"/>
<path fill="#86306F" opacity="1.000000" stroke="none" 
	d="
M97.901184,82.072304 
	C100.153931,81.401161 100.367996,79.130295 101.935661,78.042847 
	C103.733742,79.687485 102.953766,81.800224 102.960342,83.644165 
	C103.026505,102.200615 103.006073,120.757401 102.995178,139.314087 
	C102.993614,141.970413 102.973930,144.620392 103.910919,147.591858 
	C101.958336,148.000000 99.916664,148.000000 97.437500,148.000000 
	C94.385979,145.983292 94.635498,143.054642 94.618149,140.263214 
	C94.534805,126.848358 94.584076,113.433121 94.593056,100.018059 
	C94.594276,98.191803 94.776962,96.367332 93.351212,94.414650 
	C94.652550,90.083244 96.140350,86.146729 97.901184,82.072304 
z"/>
<path fill="#2F8F40" opacity="1.000000" stroke="none" 
	d="
M468.000000,44.535347 
	C460.736908,44.999821 453.473724,45.016510 446.210724,44.994228 
	C440.183838,44.975739 440.322205,44.986702 441.611176,39.288853 
	C442.114075,37.065784 444.049255,34.689377 441.458862,32.181004 
	C439.290558,30.498026 439.926117,28.396336 439.982971,26.040295 
	C441.835968,23.473480 441.010956,19.907129 444.434265,18.380445 
	C447.925354,18.784870 448.319275,21.101475 447.985840,23.495152 
	C447.400543,27.696857 449.581543,28.697611 453.153442,28.607946 
	C456.115021,28.533606 459.082428,28.548765 462.045624,28.651272 
	C464.026215,28.719786 466.039459,28.733776 467.731049,30.738316 
	C468.000000,35.356899 468.000000,39.713799 468.000000,44.535347 
z"/>
<path fill="#189F5B" opacity="1.000000" stroke="none" 
	d="
M393.687988,1.683315 
	C394.070068,4.303254 395.427795,6.459817 395.046143,9.305039 
	C395.171143,10.015761 395.348114,10.308724 395.737793,10.768026 
	C395.959198,11.396898 396.005066,11.836938 396.071167,12.608392 
	C396.014526,13.799074 395.995148,14.663801 395.691986,15.923944 
	C388.151245,19.850399 380.770630,23.396547 371.873413,20.737696 
	C371.035187,13.946755 371.692627,7.631302 374.680725,1.308289 
	C380.688049,1.000000 386.376068,1.000000 392.532043,1.000000 
	C393.166412,1.139335 393.332855,1.278670 393.687988,1.683315 
z"/>
<path fill="#843782" opacity="1.000000" stroke="none" 
	d="
M120.539368,1.000000 
	C120.742332,2.423908 120.484673,3.847817 120.176208,5.630198 
	C121.378380,7.712788 121.380112,9.581614 121.109451,11.637661 
	C119.857628,21.146879 117.551140,30.429918 115.290962,39.725075 
	C114.807343,41.713970 114.003128,43.493362 111.348068,44.123611 
	C107.650986,39.298717 106.916534,33.398518 104.246826,27.988998 
	C106.929932,27.315958 106.508591,25.227524 106.543373,23.476671 
	C106.648872,18.164967 106.512749,12.850718 106.637794,7.539297 
	C106.688080,5.403576 106.517387,3.157636 108.721069,1.284704 
	C112.692909,1.000000 116.385818,1.000000 120.539368,1.000000 
z"/>
<path fill="#3C9248" opacity="1.000000" stroke="none" 
	d="
M446.665619,1.342040 
	C453.256561,1.000000 459.514801,1.080030 465.768677,0.950506 
	C467.609283,0.912386 468.124664,1.334466 468.051971,3.217178 
	C467.886963,7.491618 468.000000,11.776793 468.000000,16.528801 
	C466.678070,18.708488 464.831787,19.186871 462.789551,19.287861 
	C459.345367,19.458179 455.898865,19.292538 452.458740,19.374638 
	C448.250183,19.475077 445.488647,17.972546 444.739532,13.062370 
	C443.502197,8.694937 443.970367,5.037550 446.665619,1.342040 
z"/>
<path fill="#65B0C1" opacity="1.000000" stroke="none" 
	d="
M305.468658,148.000000 
	C305.090576,144.978622 307.409698,144.286728 309.670654,143.625427 
	C320.504089,140.456863 331.348145,137.324661 342.549683,134.093506 
	C346.841492,136.553406 347.534973,141.673996 344.353577,147.635345 
	C331.312439,148.000000 318.624878,148.000000 305.468658,148.000000 
z"/>
<path fill="#349043" opacity="1.000000" stroke="none" 
	d="
M445.481323,11.979908 
	C446.971344,15.939540 449.405304,17.431355 453.571075,17.084118 
	C458.039612,16.711647 462.563263,17.000212 467.531433,17.000151 
	C468.000000,21.356899 468.000000,25.713799 468.000000,30.535347 
	C461.188171,31.105085 454.372314,31.104153 447.566437,31.364973 
	C444.651398,31.476685 444.135529,30.262386 444.558624,27.747278 
	C445.014008,25.040039 446.777527,22.411860 444.997620,19.233200 
	C443.096954,17.652531 442.662933,16.024637 443.572083,13.648959 
	C444.056122,12.690570 444.481598,12.274187 445.481323,11.979908 
z"/>
<path fill="#2E75AD" opacity="1.000000" stroke="none" 
	d="
M271.297485,11.363876 
	C270.969177,7.964177 270.962952,4.935596 270.978363,1.453508 
	C279.354218,1.000000 287.708466,1.000000 296.531342,1.000000 
	C296.808136,4.771509 297.497742,8.584758 296.260437,12.670843 
	C294.694366,14.668290 292.864075,15.202569 290.818573,15.287819 
	C286.392181,15.472300 281.968811,15.406296 277.541107,15.298038 
	C274.824097,15.231609 272.798340,14.245503 271.297485,11.363876 
z"/>
<path fill="#002A73" opacity="1.000000" stroke="none" 
	d="
M232.531342,1.000000 
	C232.994492,4.028535 232.988983,7.057070 232.979691,10.539253 
	C231.085953,13.449341 228.420013,13.427488 225.771835,13.074498 
	C216.961670,11.900151 208.274734,9.955973 199.452942,8.820911 
	C197.215897,8.533081 194.829193,8.074333 193.319626,5.336257 
	C193.305771,3.886942 193.585739,2.779733 193.932861,1.336262 
	C206.687561,1.000000 219.375122,1.000000 232.531342,1.000000 
z"/>
<path fill="#5198C6" opacity="1.000000" stroke="none" 
	d="
M289.368591,137.661896 
	C289.062683,141.039871 289.037354,144.066193 289.006012,147.546249 
	C283.311951,148.000000 277.623932,148.000000 271.467957,148.000000 
	C270.991272,141.644196 270.982513,135.288406 270.981018,128.463943 
	C271.252441,127.793701 271.609528,127.417023 271.807007,127.496056 
	C277.606232,129.816895 284.609833,128.373260 289.841675,133.548630 
	C290.521637,135.125366 290.401703,136.257385 289.368591,137.661896 
z"/>
<path fill="#863066" opacity="1.000000" stroke="none" 
	d="
M93.097328,94.393608 
	C96.668655,93.332489 97.063332,95.259941 97.045914,98.152809 
	C96.947731,114.455605 96.999672,130.759293 97.000214,147.531342 
	C95.611107,148.000000 94.222221,148.000000 92.416664,148.000000 
	C89.567474,146.119019 89.650345,143.389511 89.627098,140.742432 
	C89.547012,131.624115 89.534065,122.505310 89.628319,113.386848 
	C89.645142,111.759796 90.164825,110.050209 88.468185,108.337227 
	C89.795143,103.578140 91.412521,99.172798 93.097328,94.393608 
z"/>
<path fill="#872D5B" opacity="1.000000" stroke="none" 
	d="
M88.110092,108.358215 
	C91.965485,108.230598 91.996193,110.966225 91.995842,113.733749 
	C91.994431,124.843391 91.998276,135.953033 92.000092,147.531342 
	C90.285645,148.000000 88.571281,148.000000 86.428467,148.000000 
	C83.348122,146.573837 82.764755,144.202271 82.616348,141.392456 
	C82.340706,136.173462 83.169952,130.942307 82.125870,125.368515 
	C82.893097,119.179138 86.259514,114.255363 88.110092,108.358215 
z"/>
<path fill="#2A8EB1" opacity="1.000000" stroke="none" 
	d="
M344.460632,148.000000 
	C343.712677,143.588196 344.775909,139.103119 343.096222,134.382141 
	C342.964172,131.314407 343.017395,128.621338 343.094849,125.480804 
	C344.528595,123.805588 346.099976,124.158783 347.026733,125.343269 
	C349.584930,128.612869 353.561981,130.165146 356.445679,133.621643 
	C357.608429,137.389938 357.623291,140.797714 356.319641,144.581985 
	C356.109924,145.734680 356.076996,146.489944 356.022034,147.622604 
	C352.307098,148.000000 348.614166,148.000000 344.460632,148.000000 
z"/>
<path fill="#3F3E89" opacity="1.000000" stroke="none" 
	d="
M140.020142,121.396980 
	C142.515045,117.560860 142.219330,113.039772 144.734253,109.254227 
	C147.078766,108.926956 147.435211,110.539474 147.434189,111.994690 
	C147.426178,123.303528 147.783844,134.615112 147.271011,145.921463 
	C147.246567,146.460114 146.891525,146.820541 146.325546,147.622833 
	C144.611115,148.000000 143.222214,148.000000 141.416656,148.000000 
	C138.892120,146.392838 138.777740,144.054977 138.644012,141.697815 
	C138.342575,136.384750 139.312225,131.182571 139.964691,125.474167 
	C139.988174,123.930656 140.000656,122.863892 140.020142,121.396980 
z"/>
<path fill="#79B469" opacity="1.000000" stroke="none" 
	d="
M445.974854,11.562147 
	C445.642639,12.128135 445.397369,12.333570 445.060669,12.792732 
	C443.770111,14.226651 442.332367,14.559907 440.850555,13.880121 
	C435.617218,11.479390 430.023468,9.606503 426.218445,4.295115 
	C425.647278,3.224422 425.345551,2.434867 425.021912,1.322657 
	C432.020966,1.000000 439.041901,1.000000 446.531433,1.000000 
	C447.413696,4.454185 446.383057,7.768282 445.974854,11.562147 
z"/>
<path fill="#85347A" opacity="1.000000" stroke="none" 
	d="
M108.583336,1.000000 
	C108.997795,9.155464 108.913124,17.312130 109.031990,25.465830 
	C109.083000,28.965305 107.843544,29.632868 104.607887,27.785332 
	C103.174286,24.721169 102.094299,21.782703 100.983887,18.476124 
	C102.126625,12.627731 100.134361,6.662534 103.747505,1.258682 
	C105.388893,1.000000 106.777779,1.000000 108.583336,1.000000 
z"/>
<path fill="#882B50" opacity="1.000000" stroke="none" 
	d="
M81.690071,125.285522 
	C85.211700,125.311096 84.899963,127.800911 85.007278,130.101822 
	C85.272873,135.796021 84.284752,141.550888 85.911041,147.591843 
	C84.285645,148.000000 82.571281,148.000000 80.428467,148.000000 
	C78.393845,145.917709 75.402626,144.773849 75.773376,141.198364 
	C77.132896,135.559784 79.481934,130.628555 81.690071,125.285522 
z"/>
<path fill="#2E3D88" opacity="1.000000" stroke="none" 
	d="
M146.375000,148.000000 
	C146.000290,137.033112 146.009399,126.066216 145.992126,115.099358 
	C145.989273,113.284431 146.211166,111.431313 145.180206,109.343544 
	C145.556000,106.545982 146.143402,104.106483 146.884125,101.328339 
	C150.808075,100.326309 150.404892,103.193367 150.436996,105.294067 
	C150.580780,114.701073 150.606613,124.112465 150.448700,133.518127 
	C150.371979,138.087524 151.336700,142.747543 149.318420,147.614227 
	C148.250000,148.000000 147.500000,148.000000 146.375000,148.000000 
z"/>
<path fill="#153D88" opacity="1.000000" stroke="none" 
	d="
M149.011688,93.329666 
	C149.539520,91.504272 150.065552,90.012589 150.804520,88.260071 
	C153.769165,89.395119 152.961121,91.993713 152.968155,94.194313 
	C153.024536,111.816956 152.999100,129.439865 152.999344,147.531342 
	C152.555557,148.000000 152.111099,148.000000 151.333328,148.000000 
	C149.586273,146.266632 150.026459,144.193527 150.018829,142.237640 
	C149.978516,131.922974 149.945908,121.607651 150.023071,111.293411 
	C150.061600,106.145866 149.865158,101.023468 149.120300,95.456772 
	C148.998749,94.553146 149.004318,94.108261 149.011688,93.329666 
z"/>
<path fill="#4B3E8A" opacity="1.000000" stroke="none" 
	d="
M139.740677,125.265602 
	C142.146622,132.267624 140.468414,139.716476 140.999908,147.531387 
	C137.969406,148.000000 134.938812,148.000000 131.454102,148.000000 
	C131.018341,147.832077 131.036682,147.664139 131.089600,147.244751 
	C134.138138,145.251495 133.980637,141.934174 134.933792,139.196442 
	C136.512589,134.661667 137.302246,129.862045 139.740677,125.265602 
z"/>
<path fill="#139E55" opacity="1.000000" stroke="none" 
	d="
M374.625000,1.000000 
	C373.294159,6.936358 373.021820,13.107007 372.019623,19.581703 
	C373.559052,21.291029 373.731354,22.929274 373.531952,24.845182 
	C373.025482,29.711891 372.075623,34.491558 371.024780,39.696487 
	C370.056610,44.502251 371.205597,49.627518 366.069885,52.664158 
	C362.757812,51.778862 363.108246,49.307770 362.964478,46.697849 
	C363.355621,45.096058 364.108795,44.000359 363.904175,42.299236 
	C363.664032,41.182358 363.694550,40.432217 363.937256,39.320496 
	C364.516479,38.093891 365.049133,37.259312 365.488892,35.972412 
	C365.826172,35.184307 366.122253,34.804729 366.794800,34.273743 
	C368.401306,25.948824 369.737885,17.843521 371.012604,9.728504 
	C371.422668,7.117913 371.669769,4.481727 371.995728,1.428625 
	C372.750000,1.000000 373.500000,1.000000 374.625000,1.000000 
z"/>
<path fill="#203D88" opacity="1.000000" stroke="none" 
	d="
M148.785431,95.277962 
	C151.559326,96.222672 150.972748,98.606941 150.978012,100.681313 
	C151.017273,116.141685 150.999435,131.602203 150.999756,147.531342 
	C150.555557,148.000000 150.111099,148.000000 149.333328,148.000000 
	C148.999161,134.309952 149.018433,120.619835 148.974380,106.929924 
	C148.968231,105.018570 149.506836,102.907394 147.366455,101.185310 
	C147.121902,99.057465 147.663666,97.254906 148.785431,95.277962 
z"/>
<path fill="#853170" opacity="1.000000" stroke="none" 
	d="
M103.545891,1.000000 
	C103.997932,5.234936 103.904953,9.472579 104.030914,13.703703 
	C104.097092,15.926776 103.445793,17.345055 101.038017,17.898041 
	C98.711746,12.637486 96.470039,7.166963 94.114166,1.348220 
	C97.030594,1.000000 100.061188,1.000000 103.545891,1.000000 
z"/>
<path fill="#8ABC7D" opacity="1.000000" stroke="none" 
	d="
M418.780884,140.364441 
	C419.231934,139.756622 419.382660,139.516235 419.651001,139.101135 
	C420.412354,138.584290 421.081970,138.396515 422.280701,138.593369 
	C424.157959,141.636047 425.552979,144.461105 426.973999,147.643097 
	C424.629425,148.000000 422.258881,148.000000 419.444153,148.000000 
	C417.494659,145.673706 417.841827,143.220169 418.780884,140.364441 
z"/>
<path fill="#882849" opacity="1.000000" stroke="none" 
	d="
M75.739960,141.182343 
	C79.361496,141.710968 80.278435,144.089554 79.997940,147.616852 
	C77.958336,148.000000 75.916664,148.000000 73.437500,148.000000 
	C73.838753,145.816330 74.677505,143.632660 75.739960,141.182343 
z"/>
<path fill="#09927C" opacity="1.000000" stroke="none" 
	d="
M418.726868,140.159241 
	C419.042938,142.359268 419.025818,144.734818 419.004333,147.555176 
	C418.555542,148.000000 418.111115,148.000000 417.333313,148.000000 
	C417.385468,145.430542 416.007233,142.540421 418.726868,140.159241 
z"/>
<path fill="#8E1015" opacity="1.000000" stroke="none" 
	d="
M31.932661,4.695747 
	C30.655127,4.213256 29.585136,3.173422 29.074657,1.315241 
	C29.750000,1.000000 30.500000,1.000000 31.625000,1.000000 
	C31.985743,2.094522 31.971487,3.189043 31.932661,4.695747 
z"/>
<path fill="#039C59" opacity="1.000000" stroke="none" 
	d="
M393.917053,1.712711 
	C393.646820,1.772349 393.439545,1.572634 393.127441,1.174739 
	C393.000000,1.000000 393.500000,1.000000 393.750000,1.000000 
	C394.000000,1.000000 393.957458,1.476797 393.917053,1.712711 
z"/>
<path fill="#663E91" opacity="1.000000" stroke="none" 
	d="
M110.938202,44.472973 
	C114.970474,35.687901 115.370918,26.296104 117.808647,17.430542 
	C118.766190,13.948126 119.303398,10.350133 120.078720,6.396722 
	C122.775818,7.114047 122.973259,9.470179 122.974861,11.849360 
	C122.991379,36.326035 122.984344,60.802727 122.981895,85.279411 
	C122.981712,87.145134 122.709053,88.935371 121.210304,90.728897 
	C117.527435,80.776619 116.447723,70.018982 114.025703,59.556812 
	C113.317642,56.498283 112.933693,53.351219 111.171562,50.245560 
	C109.925728,48.238468 111.452576,46.530525 110.938202,44.472973 
z"/>
<path fill="#AF223C" opacity="1.000000" stroke="none" 
	d="
M32.333050,83.870293 
	C32.058193,59.019646 32.044785,33.955059 32.049625,8.415958 
	C38.355804,16.557077 42.364079,26.635880 48.740715,35.091270 
	C54.864803,43.211792 53.969429,49.800236 48.346050,57.644749 
	C42.458103,65.858337 37.793697,74.949036 32.333050,83.870293 
z"/>
<path fill="#00367A" opacity="1.000000" stroke="none" 
	d="
M232.675446,22.681747 
	C232.989563,27.350485 232.992844,31.708939 232.995316,36.531639 
	C220.250931,35.906033 207.761108,33.141617 195.139313,31.247829 
	C190.943024,30.618216 189.777374,27.689161 190.177094,23.967251 
	C190.441116,21.508913 191.107193,19.093756 191.791000,16.329119 
	C193.302094,14.415496 194.979507,14.249381 196.918259,14.482668 
	C207.105637,15.708497 217.178894,17.596725 227.240295,19.562553 
	C229.240601,19.953381 231.002914,20.803320 232.675446,22.681747 
z"/>
<path fill="#002F76" opacity="1.000000" stroke="none" 
	d="
M232.988831,22.532185 
	C219.592331,20.685518 206.198380,18.379007 192.396576,16.035734 
	C192.326767,12.613482 192.664780,9.227992 193.014297,5.418325 
	C206.018661,7.178510 218.892349,10.138578 232.532455,10.994859 
	C232.981064,14.686048 232.986221,18.379192 232.988831,22.532185 
z"/>
<path fill="#004085" opacity="1.000000" stroke="none" 
	d="
M232.581390,49.986336 
	C232.997345,52.370186 232.997742,54.741314 232.997238,57.556694 
	C231.921448,59.150646 230.702133,59.831333 229.025192,59.604267 
	C216.322189,57.884193 203.630707,56.102608 191.131042,53.184723 
	C190.120560,52.948837 189.329407,52.355000 188.314087,51.309578 
	C186.058121,44.805229 188.030838,42.505901 194.343170,43.576878 
	C206.949600,45.715736 219.558151,47.842094 232.581390,49.986336 
z"/>
<path fill="#004990" opacity="1.000000" stroke="none" 
	d="
M232.678864,69.689629 
	C232.988434,72.375626 232.989929,74.747032 232.984131,77.563232 
	C219.249939,75.678177 205.523026,73.348328 191.379089,71.002563 
	C190.005630,69.027763 189.969772,66.922302 189.975861,64.406815 
	C190.697021,61.512386 192.579590,61.292110 194.729630,61.558025 
	C206.134293,62.968540 217.410919,65.196121 228.772919,66.876724 
	C230.428513,67.121605 231.339020,68.303085 232.678864,69.689629 
z"/>
<path fill="#00438A" opacity="1.000000" stroke="none" 
	d="
M187.999176,51.411434 
	C202.837067,52.609348 217.455795,55.619267 232.590469,57.963943 
	C232.996490,59.715389 232.996643,61.429840 232.995224,63.572807 
	C231.146866,66.095291 228.714294,65.506088 226.495361,65.206383 
	C215.707626,63.749329 204.934418,62.184940 194.198883,60.369232 
	C192.513336,60.084156 191.037872,59.499916 189.356949,58.223362 
	C187.666443,56.102997 188.087738,53.922188 187.999176,51.411434 
z"/>
<path fill="#00458D" opacity="1.000000" stroke="none" 
	d="
M188.991348,58.399925 
	C193.200027,56.776615 197.195618,58.488522 201.242325,59.046688 
	C211.588196,60.473701 221.890747,62.214859 232.602142,63.915844 
	C232.994171,65.716385 232.994705,67.431458 232.991089,69.575371 
	C220.182861,67.958405 207.381012,65.898155 194.571167,63.889065 
	C193.286713,63.687614 191.953598,63.796516 190.308167,63.882641 
	C188.839188,62.419369 189.034424,60.585007 188.991348,58.399925 
z"/>
<path fill="#004390" opacity="1.000000" stroke="none" 
	d="
M233.634521,138.989105 
	C233.879898,141.021149 233.906174,143.059814 233.891876,145.532074 
	C231.164093,144.306030 231.931534,141.962509 232.788010,139.324249 
	C232.977234,139.009674 233.415421,138.995728 233.634521,138.989105 
z"/>
<path fill="#374594" opacity="1.000000" stroke="none" 
	d="
M156.239166,68.731033 
	C154.458450,67.566719 153.983871,65.728134 153.990463,63.619526 
	C154.028427,51.462597 154.014206,39.305485 154.006348,27.148445 
	C154.005249,25.434799 154.260132,23.826471 155.791809,22.250990 
	C158.307510,25.740536 158.531174,30.150412 159.875488,34.612583 
	C158.645050,41.755589 159.369019,48.551476 159.778229,55.673634 
	C159.431000,60.330284 157.658951,64.300674 156.239166,68.731033 
z"/>
<path fill="#2B4695" opacity="1.000000" stroke="none" 
	d="
M160.129379,55.676323 
	C159.263702,55.590965 158.313309,55.340107 157.910950,54.728642 
	C155.913467,51.693062 156.922226,38.342865 159.598541,35.146378 
	C162.893616,41.725269 164.021088,48.491058 160.129379,55.676323 
z"/>
<path fill="#8ABB74" opacity="1.000000" stroke="none" 
	d="
M436.933228,45.628067 
	C436.887848,47.767368 436.795685,49.505836 436.690491,51.680237 
	C436.601898,52.302029 436.526398,52.487881 436.237823,52.886269 
	C436.024780,53.098797 436.028931,53.030991 436.062195,53.037926 
	C433.955139,54.680977 434.455292,57.407818 433.230774,59.801571 
	C433.034119,60.099678 433.040802,60.526180 433.070984,60.737312 
	C431.738525,67.279243 427.298920,72.302505 425.723480,78.601746 
	C424.836517,82.148254 421.462646,82.229362 418.368073,82.155205 
	C415.458527,82.085480 413.940063,80.759102 413.329987,77.799683 
	C412.840027,75.422974 412.195374,72.963646 410.410217,70.614899 
	C408.950317,68.894279 408.502411,67.113007 407.602905,65.132881 
	C407.110565,64.399895 406.873627,63.958740 406.579346,63.135757 
	C406.272858,62.105217 406.166260,61.402508 405.806641,60.395302 
	C405.521484,58.386108 405.255463,56.738995 404.484680,54.827866 
	C404.418945,53.716724 404.388123,52.973110 404.064453,51.877468 
	C403.112122,48.514137 402.041473,45.592075 401.405396,42.539021 
	C401.026642,40.721104 400.682648,38.985176 402.543945,37.267620 
	C405.012756,34.657642 407.700867,33.886173 410.835754,33.976425 
	C417.685913,34.173637 424.540283,34.223125 431.706696,34.147629 
	C436.667725,34.437004 435.835602,38.549416 436.767273,41.373318 
	C437.140106,42.503391 436.391602,43.938145 436.933228,45.628067 
z"/>
<path fill="#8BBB7A" opacity="1.000000" stroke="none" 
	d="
M410.842957,69.187927 
	C414.067169,70.183968 413.779388,72.950691 414.323059,75.291534 
	C414.906982,77.805748 415.537872,80.040886 418.937439,80.023125 
	C422.161224,80.006287 423.725983,78.763176 424.209106,75.515823 
	C425.068604,69.738663 430.947876,66.796890 432.817230,61.158936 
	C434.663177,64.305252 432.051239,67.038742 431.323242,69.876793 
	C428.191101,82.086952 425.154907,94.301270 423.080322,106.737892 
	C422.797302,108.434441 422.074005,109.850342 421.246826,111.671402 
	C422.405548,113.729950 421.876038,115.689018 421.966797,117.962769 
	C421.847626,119.521828 421.372498,120.474442 420.078430,121.357635 
	C419.423279,121.523529 419.148865,121.527740 418.493103,121.381783 
	C416.352173,119.960045 416.467072,117.978996 416.110657,115.764320 
	C415.830078,114.636391 415.611145,113.895432 415.413086,112.767052 
	C415.615814,111.417343 415.374756,110.509117 414.869476,109.273727 
	C414.516754,107.727394 414.753876,106.489624 414.433716,104.937035 
	C414.555725,103.668526 414.764069,102.759995 414.289001,101.531242 
	C414.049866,100.762398 413.991913,100.308029 413.961121,99.510178 
	C413.749481,98.036919 413.003235,97.084839 412.801239,95.592590 
	C412.603210,94.568275 412.503998,93.878662 412.226807,92.869278 
	C412.098846,92.303024 412.063141,92.073730 412.010620,91.497993 
	C411.974274,89.545944 411.809540,87.958771 411.329834,86.066940 
	C411.197327,85.077133 411.202423,84.416023 410.970825,83.444122 
	C410.802795,82.666481 410.768311,82.211945 410.786835,81.410980 
	C410.865814,80.131577 410.755127,79.229073 410.176758,78.043396 
	C409.973572,77.194801 409.972198,76.696571 410.078796,75.815796 
	C410.412659,73.426277 408.847626,71.297035 410.842957,69.187927 
z"/>
<path fill="#0A9727" opacity="1.000000" stroke="none" 
	d="
M420.688477,119.502739 
	C420.930359,117.000618 421.005676,114.953316 421.124512,112.469154 
	C421.697998,112.621712 422.686920,113.210869 422.687256,113.800583 
	C422.690765,120.072708 424.204224,126.429047 421.484924,132.780670 
	C418.968964,128.733124 419.134705,124.375282 420.688477,119.502739 
z"/>
<path fill="#95C081" opacity="1.000000" stroke="none" 
	d="
M420.679382,119.229874 
	C420.922089,123.383476 420.989136,127.719025 421.108154,132.514999 
	C421.362701,133.882431 421.565247,134.789459 421.692047,135.975540 
	C421.877289,136.376358 422.138275,136.498123 422.496643,137.040741 
	C422.769745,137.732895 422.845367,138.029694 422.791870,138.581482 
	C422.102142,138.847519 421.441345,138.884079 420.285217,138.930176 
	C419.670746,138.141083 419.551697,137.342422 419.329498,136.259430 
	C417.870453,134.669098 418.706665,133.039551 418.881958,131.199158 
	C419.222595,130.438309 419.254913,130.031403 419.220520,129.324219 
	C417.081055,126.723015 417.148010,124.203117 418.790466,121.256966 
	C419.628265,120.437927 420.065979,119.924881 420.679382,119.229874 
z"/>
<path fill="#8BBB7A" opacity="1.000000" stroke="none" 
	d="
M433.342346,59.917217 
	C433.283142,57.631218 432.075958,54.666248 435.734680,53.141098 
	C436.080383,55.567158 435.610229,57.923126 433.342346,59.917217 
z"/>
<path fill="#8BBB7A" opacity="1.000000" stroke="none" 
	d="
M436.240601,53.058201 
	C436.144470,52.863979 436.280884,52.639328 436.555725,52.270508 
	C436.677429,52.116173 436.848053,52.516735 436.869232,52.733322 
	C436.890411,52.949905 436.456421,53.017605 436.240601,53.058201 
z"/>
<path fill="#95C081" opacity="1.000000" stroke="none" 
	d="
M421.840790,136.572510 
	C422.439941,135.853638 422.741211,136.236633 422.683197,137.243271 
	C422.417786,137.271210 422.241547,137.080811 421.840790,136.572510 
z"/>
<path fill="#48A6CB" opacity="1.000000" stroke="none" 
	d="
M294.648376,38.194763 
	C298.432434,44.243526 303.354248,42.526421 308.608612,41.055428 
	C316.104614,38.956875 323.317383,35.752472 331.589478,35.000477 
	C334.600098,34.766193 334.876617,36.756432 335.265747,38.515362 
	C336.339935,43.371048 337.486572,48.220219 337.620850,53.679932 
	C337.821442,55.336700 338.003387,56.546505 337.142212,58.074703 
	C327.119629,62.828850 316.458679,64.231010 306.384399,67.592827 
	C304.010468,68.385010 301.526611,68.744865 299.053986,69.077469 
	C296.862305,69.372284 294.731964,69.120857 292.481567,67.580414 
	C289.157379,61.282173 291.317505,55.090389 291.501526,48.521484 
	C292.471832,44.835068 291.054626,40.987801 294.648376,38.194763 
z"/>
<path fill="#3CAACF" opacity="1.000000" stroke="none" 
	d="
M336.304321,54.307934 
	C334.792755,47.891533 333.596344,41.780251 332.201813,35.332794 
	C332.003052,33.283539 332.002441,31.570461 332.003357,29.429218 
	C341.370850,29.002041 350.738892,29.117178 360.101654,28.944901 
	C363.592010,28.880680 365.784515,30.038733 366.873566,33.755898 
	C367.054565,34.495171 367.020386,34.932446 366.925842,35.693100 
	C366.233490,36.703529 365.997406,37.518509 366.121490,38.763924 
	C366.100708,39.824673 366.041595,40.558983 365.921814,41.656624 
	C364.884735,42.993477 364.991730,44.225113 365.070862,45.746948 
	C365.059509,47.819809 365.022614,49.589748 364.908203,51.679344 
	C366.215759,54.456665 366.591339,56.759937 363.382416,58.721062 
	C356.592316,55.914120 349.821716,56.393322 343.101349,56.360039 
	C340.824402,56.348766 338.409637,56.558704 336.304321,54.307934 
z"/>
<path fill="#387DB3" opacity="1.000000" stroke="none" 
	d="
M295.060944,37.604965 
	C294.712067,41.051006 294.341156,44.092571 293.960815,47.559212 
	C287.866699,51.221645 275.393738,49.680206 269.713409,44.631241 
	C268.455536,39.037079 267.647797,33.843182 270.337769,28.368031 
	C270.704376,26.894238 270.802246,25.836786 270.927277,24.381588 
	C271.943573,23.184729 273.166443,22.856123 274.184692,23.531042 
	C277.755737,25.897877 281.760071,25.525051 285.708344,25.626394 
	C293.031891,25.814365 293.285553,26.043266 294.664246,33.607861 
	C294.948151,35.043377 294.993530,36.121937 295.060944,37.604965 
z"/>
<path fill="#3379B0" opacity="1.000000" stroke="none" 
	d="
M294.925903,33.531036 
	C292.712646,26.602743 286.637115,27.808271 281.280334,28.090185 
	C277.286621,28.300365 274.245361,27.005020 271.283997,24.111141 
	C270.949890,19.962645 270.945404,15.941447 270.958160,11.456504 
	C278.764191,14.718499 287.066376,12.310687 295.582520,13.018984 
	C296.251556,19.747057 295.848297,26.435837 294.925903,33.531036 
z"/>
<path fill="#1A9D63" opacity="1.000000" stroke="none" 
	d="
M362.712280,58.356003 
	C364.630493,56.473259 363.521881,54.281296 364.587769,52.263420 
	C368.845581,49.212742 367.126740,44.379902 368.922211,40.387791 
	C370.316162,38.304710 372.207611,37.820251 374.184753,37.374279 
	C381.452972,35.734852 388.693573,33.973320 395.856934,31.919119 
	C397.527435,31.440081 399.078125,31.112381 400.852417,32.666275 
	C402.372467,33.884304 401.808716,35.424313 402.644714,36.801865 
	C402.970398,41.945953 405.548065,46.298653 406.098358,51.517654 
	C406.043701,52.490723 405.885040,53.040947 405.390411,53.912987 
	C400.332520,57.922997 394.320343,58.090424 388.858551,59.812645 
	C382.877502,61.698597 376.747223,63.100399 370.651245,64.595612 
	C367.845001,65.283920 365.101105,65.515709 362.260254,63.412991 
	C361.174011,61.514767 361.273773,60.041458 362.712280,58.356003 
z"/>
<path fill="#169E5E" opacity="1.000000" stroke="none" 
	d="
M401.141663,32.545876 
	C393.047791,35.057625 384.925140,37.257523 376.755127,39.264473 
	C374.537231,39.809303 372.176239,39.771652 369.443481,40.002701 
	C369.981110,33.607666 370.956146,27.211271 371.969238,20.408951 
	C379.837769,20.290316 386.885925,16.785917 394.686890,15.190228 
	C395.374420,14.650579 395.809204,14.505170 396.600647,14.769539 
	C396.942627,15.418551 396.993225,15.853114 397.065399,16.615345 
	C397.046234,17.528345 397.162231,18.070908 397.709351,18.763016 
	C398.365417,20.962814 399.409912,22.835032 399.040894,25.366320 
	C399.170135,26.054573 399.349396,26.330816 399.730072,26.767992 
	C400.294983,28.688894 400.695038,30.425173 401.141663,32.545876 
z"/>
<path fill="#74B36C" opacity="1.000000" stroke="none" 
	d="
M425.963257,4.432686 
	C432.504730,5.998727 437.702972,10.797577 444.578491,12.912905 
	C444.906006,14.690414 444.888672,16.389244 444.820496,18.508860 
	C444.039673,21.136623 443.309723,23.343601 442.348358,25.815903 
	C436.323334,26.212317 433.020386,22.188831 429.246246,18.257996 
	C427.165863,13.801842 426.383331,9.369759 425.963257,4.432686 
z"/>
<path fill="#6FB270" opacity="1.000000" stroke="none" 
	d="
M429.001343,18.404137 
	C433.994232,19.207644 437.941742,22.179684 441.869263,25.838982 
	C441.985321,27.834791 442.224731,29.642561 441.260986,31.652239 
	C439.953094,36.519989 438.740479,41.023983 437.253906,45.778442 
	C433.806671,42.869423 434.282593,38.256275 432.219025,34.268963 
	C431.018646,28.912310 430.016846,23.862324 429.001343,18.404137 
z"/>
<path fill="#069B5B" opacity="1.000000" stroke="none" 
	d="
M396.907898,14.693419 
	C396.472626,14.988018 396.053253,14.992045 395.319336,14.993633 
	C395.237061,14.455009 395.469269,13.918825 395.896423,13.161222 
	C396.368835,13.427485 396.646332,13.915167 396.907898,14.693419 
z"/>
<path fill="#069B5B" opacity="1.000000" stroke="none" 
	d="
M397.909668,18.689789 
	C397.101044,18.713642 396.380737,18.400148 396.955139,17.137077 
	C397.366302,17.428640 397.645630,17.914261 397.909668,18.689789 
z"/>
<path fill="#059B5F" opacity="1.000000" stroke="none" 
	d="
M399.843628,26.698513 
	C399.654572,26.723986 399.449127,26.467396 399.152985,25.968739 
	C399.282349,25.984560 399.537292,26.214485 399.843628,26.698513 
z"/>
<path fill="#069B5B" opacity="1.000000" stroke="none" 
	d="
M395.859283,10.694712 
	C395.703461,10.688029 395.493591,10.419208 395.157562,9.925348 
	C395.289368,9.944398 395.547302,10.188485 395.859283,10.694712 
z"/>
<path fill="#015DA2" opacity="1.000000" stroke="none" 
	d="
M270.275208,27.918301 
	C270.703705,32.984898 270.800964,38.018112 270.924316,43.516552 
	C272.224396,46.005379 273.494537,48.029797 272.085327,50.981644 
	C270.597626,52.340397 269.282959,53.018024 267.702179,52.818272 
	C262.097382,52.110039 256.459229,52.628441 250.845139,52.324760 
	C248.538864,52.200008 246.125244,52.239876 244.468948,49.410301 
	C244.405075,40.568745 242.588486,32.282597 242.073792,23.455166 
	C246.026947,23.302862 249.891479,24.165638 253.894409,24.056223 
	C259.535553,23.902027 265.476746,22.941122 270.275208,27.918301 
z"/>
<path fill="#3472B1" opacity="1.000000" stroke="none" 
	d="
M271.237366,125.720901 
	C263.229248,121.645630 254.941956,123.174698 246.886887,123.030746 
	C239.010574,122.889999 239.008636,122.998413 237.092896,115.230469 
	C238.422211,111.559563 237.163940,107.800797 238.705719,104.204208 
	C240.207809,102.507629 241.829163,101.830376 243.752441,101.753967 
	C250.553299,101.483803 257.352539,101.692841 264.152527,101.704216 
	C268.151367,101.710907 269.106812,105.089790 271.682251,107.416229 
	C273.461151,113.733704 274.771393,119.647621 271.237366,125.720901 
z"/>
<path fill="#2F6CAD" opacity="1.000000" stroke="none" 
	d="
M271.189758,107.733391 
	C263.316345,101.282280 254.230148,104.857971 245.851898,104.027901 
	C243.880890,103.832626 241.874924,103.990318 239.410950,103.979218 
	C239.293182,97.051590 239.645996,90.130180 240.009338,83.209328 
	C240.069519,82.062790 240.124130,80.897125 241.611832,80.024719 
	C246.148514,82.853706 250.941193,82.785492 255.774216,82.601395 
	C261.459473,82.384850 267.116577,82.365913 272.162567,86.615524 
	C273.931061,93.245247 273.805298,99.547089 272.409393,106.295364 
	C272.007080,106.988480 271.810242,107.244049 271.189758,107.733391 
z"/>
<path fill="#2767A9" opacity="1.000000" stroke="none" 
	d="
M271.172852,86.710327 
	C263.052063,84.158119 255.027954,84.631180 247.151550,85.275482 
	C242.984711,85.616341 241.611816,84.607101 241.968094,80.275085 
	C241.979858,75.188835 242.003632,70.523239 242.055878,65.440308 
	C247.234924,63.389751 252.466766,65.002655 257.663757,64.656075 
	C262.419342,64.338913 267.258240,64.289276 271.872894,67.395035 
	C274.164276,72.683189 273.394348,77.794327 272.867981,83.355499 
	C272.453979,84.745079 272.307434,85.728615 271.172852,86.710327 
z"/>
<path fill="#1061A5" opacity="1.000000" stroke="none" 
	d="
M244.131836,49.424446 
	C249.679230,50.703873 255.340286,49.837196 260.936188,49.966236 
	C263.922363,50.035099 266.880524,50.112637 270.174805,50.913811 
	C274.412354,53.371868 273.189453,56.804230 272.168579,60.590546 
	C270.911194,62.246719 269.578033,62.959896 268.028961,62.790081 
	C261.943970,62.123043 255.837311,62.512566 249.743607,62.345516 
	C245.965851,62.241955 243.873566,60.686569 243.361053,56.449020 
	C243.434662,53.965260 243.764679,51.893494 244.131836,49.424446 
z"/>
<path fill="#1C64A7" opacity="1.000000" stroke="none" 
	d="
M243.079315,56.460930 
	C245.503265,60.063354 249.312500,60.126854 253.420120,60.070492 
	C258.889587,59.995449 264.422455,59.390003 270.216675,60.959541 
	C270.879486,61.112396 271.148895,61.214020 271.705261,61.639324 
	C272.676636,63.914673 273.357086,65.866028 271.141113,67.787621 
	C262.931824,66.756050 255.084610,66.483032 247.263123,67.502678 
	C244.941330,67.805351 244.107285,66.222527 242.388657,65.154816 
	C243.231018,62.408367 243.014587,59.631363 243.079315,56.460930 
z"/>
<path fill="#4F93C2" opacity="1.000000" stroke="none" 
	d="
M270.818298,108.436066 
	C270.800323,107.802917 270.834503,107.638672 270.911377,107.226410 
	C271.361084,106.705322 271.885559,106.173447 272.234283,106.346321 
	C278.156555,109.282028 285.687927,107.030724 291.209473,112.492889 
	C292.544434,115.188301 292.237671,117.717392 292.403320,120.638596 
	C291.668335,123.411652 292.500305,125.726082 292.274780,128.037704 
	C292.066223,130.175079 292.195404,132.433319 289.468445,133.856506 
	C285.562622,132.782181 282.114594,131.550369 278.361115,131.975052 
	C275.221771,132.330246 273.792664,129.645721 271.313629,128.121689 
	C270.954376,127.540482 270.920471,127.085670 270.835571,126.291489 
	C270.813202,120.269737 270.841827,114.587357 270.818298,108.436066 
z"/>
<path fill="#1C9678" opacity="1.000000" stroke="none" 
	d="
M356.502747,144.899109 
	C354.191620,141.788452 355.408081,138.254669 355.026184,134.445282 
	C354.623535,133.551987 354.420380,133.035950 354.496521,132.039948 
	C356.069977,129.722824 358.001678,128.575348 360.317108,127.938393 
	C376.751953,123.417374 393.146912,118.750610 409.637146,114.432274 
	C412.057770,113.798378 414.506195,113.248894 416.954956,115.445007 
	C417.772278,117.129700 417.274963,118.597916 417.789093,120.369431 
	C418.042847,123.297127 417.952393,125.831718 418.187866,128.657608 
	C412.544586,129.080261 407.575378,131.158447 402.474792,132.464401 
	C387.216583,136.371170 372.059296,140.671906 356.502747,144.899109 
z"/>
<path fill="#09927C" opacity="1.000000" stroke="none" 
	d="
M418.237366,129.001190 
	C417.626831,126.601921 417.321747,124.211693 417.019958,121.408470 
	C417.368988,120.639359 417.789673,120.515823 418.532349,120.830383 
	C418.790009,121.068802 418.991547,121.014198 419.091034,120.982582 
	C419.195740,123.342514 419.200958,125.734062 419.179993,128.574799 
	C418.950165,129.019409 418.746490,129.014832 418.237366,129.001190 
z"/>
<path fill="#09927C" opacity="1.000000" stroke="none" 
	d="
M418.975800,131.138199 
	C419.251282,132.274017 419.312286,133.702805 419.299866,135.553329 
	C417.912384,134.579056 417.794128,133.060654 418.975800,131.138199 
z"/>
<path fill="#5DAEC3" opacity="1.000000" stroke="none" 
	d="
M289.012634,134.402267 
	C290.274628,130.050095 289.931915,125.965767 290.016907,121.461716 
	C291.138336,119.586784 292.791473,119.374687 294.396393,118.953621 
	C307.020630,115.641609 319.603424,112.163902 332.256165,108.974213 
	C335.529968,108.148911 338.150635,104.934311 342.327789,106.532730 
	C342.825806,107.045822 342.983185,107.293854 343.262390,107.972122 
	C343.867798,111.810646 345.501587,115.009079 345.242401,118.552261 
	C345.111542,120.341080 345.257996,122.216553 343.313446,123.798187 
	C335.786713,128.714890 327.479126,129.899475 319.434418,131.546310 
	C309.573364,133.564972 300.257446,138.075668 289.519714,138.010132 
	C289.064270,136.943481 289.040497,135.873398 289.012634,134.402267 
z"/>
<path fill="#2F93B7" opacity="1.000000" stroke="none" 
	d="
M342.950592,124.265503 
	C343.720917,118.911636 341.764313,113.971504 342.058167,108.464241 
	C347.639252,106.279922 352.058746,108.788902 356.627686,112.155243 
	C357.062714,112.694878 357.196045,112.941963 357.456665,113.591034 
	C358.365448,119.890457 358.960846,125.768341 355.533081,131.598267 
	C355.229614,132.404068 355.162506,132.859604 355.048309,133.657257 
	C350.656982,131.855743 346.012329,130.097000 343.450806,125.138657 
	C343.080872,124.862862 343.042725,124.692390 342.950592,124.265503 
z"/>
<path fill="#3EAFD5" opacity="1.000000" stroke="none" 
	d="
M365.346558,45.795498 
	C364.109314,44.738361 363.708191,43.459488 365.583405,42.155930 
	C365.772949,43.193676 365.684814,44.367405 365.346558,45.795498 
z"/>
<path fill="#3EAFD5" opacity="1.000000" stroke="none" 
	d="
M366.404327,38.861809 
	C365.319336,38.085083 364.992432,37.112793 366.603943,36.132347 
	C366.793274,36.888741 366.721039,37.760998 366.404327,38.861809 
z"/>
<path fill="#139B68" opacity="1.000000" stroke="none" 
	d="
M362.796021,63.035275 
	C373.425842,62.450016 382.895996,58.557259 392.721039,56.221710 
	C396.586151,55.302917 400.389709,54.125046 404.606506,53.031288 
	C405.559448,53.011787 406.073547,53.170940 406.680054,53.769287 
	C407.256317,55.708691 407.656281,57.435707 408.085876,59.547485 
	C408.057159,60.514236 408.155365,61.057873 408.685822,61.761089 
	C408.918915,62.416649 408.975128,62.850098 409.068298,63.609482 
	C408.582550,66.356133 410.415344,68.535049 409.667236,71.328094 
	C407.870331,73.563293 405.609222,74.139740 403.329468,74.697044 
	C392.650330,77.307716 382.040985,80.188210 371.399963,82.946381 
	C367.790344,83.881996 364.241608,84.664330 362.823944,88.841103 
	C362.376068,90.160698 361.079498,90.803673 359.184998,90.591461 
	C356.529602,88.847458 356.835327,86.499619 357.196198,84.256195 
	C357.586151,81.831947 357.548981,79.389015 357.854126,76.558777 
	C359.245209,73.636398 359.255920,70.789856 359.914520,68.103088 
	C360.364960,66.265556 360.171509,64.052612 362.796021,63.035275 
z"/>
<path fill="#0C986B" opacity="1.000000" stroke="none" 
	d="
M408.794403,71.399857 
	C409.338104,68.821495 407.787170,66.722519 408.912415,64.225800 
	C409.672943,65.423912 410.240631,66.912415 410.999939,68.700188 
	C411.437164,71.061485 411.682770,73.123505 411.896790,75.579346 
	C407.976776,76.775475 408.103455,74.427254 408.794403,71.399857 
z"/>
<path fill="#079A65" opacity="1.000000" stroke="none" 
	d="
M406.882324,53.689865 
	C406.369995,53.770218 405.883606,53.558765 405.194489,53.172371 
	C405.233978,52.747108 405.476196,52.496780 405.922180,52.082458 
	C406.386719,52.411659 406.647491,52.904858 406.882324,53.689865 
z"/>
<path fill="#0C986B" opacity="1.000000" stroke="none" 
	d="
M408.887817,61.691490 
	C408.078979,61.698219 407.373810,61.365334 407.980469,60.123585 
	C408.381317,60.421429 408.647125,60.910599 408.887817,61.691490 
z"/>
<path fill="#1A9A6E" opacity="1.000000" stroke="none" 
	d="
M408.604797,71.035789 
	C409.935913,72.481079 409.646820,74.557877 411.577087,75.832657 
	C411.925201,76.406624 411.985168,76.840096 412.074585,77.600769 
	C412.034363,78.798042 411.968475,79.667572 412.667175,80.714691 
	C412.927399,81.404449 412.990936,81.834236 413.091797,82.588051 
	C413.061798,83.498039 413.153503,84.046661 413.690430,84.755043 
	C414.218445,86.744507 414.565826,88.512077 414.896698,90.666550 
	C414.783112,91.206741 414.686005,91.360016 414.745239,91.736115 
	C414.956635,92.665688 415.011719,93.372429 415.059570,94.434006 
	C415.736755,95.817970 415.428131,96.976418 415.417114,98.503494 
	C414.011841,101.071320 411.799500,101.804703 409.542999,102.372292 
	C393.498322,106.408005 377.481812,110.550873 361.504028,114.844345 
	C359.919952,115.270020 358.263245,115.747948 356.444305,114.263954 
	C356.091278,113.808632 356.040833,113.640923 355.914856,113.221634 
	C353.450836,110.327950 354.090790,107.253906 354.389099,104.124908 
	C354.777924,100.046539 355.108887,95.980042 356.523987,91.634827 
	C357.027954,90.690369 357.457336,90.278664 358.458618,89.982651 
	C359.436615,89.584236 360.394348,89.219330 360.419800,88.798111 
	C360.806732,82.391960 365.617981,81.743462 370.426392,80.593132 
	C383.057343,77.571396 395.619843,74.263390 408.604797,71.035789 
z"/>
<path fill="#179775" opacity="1.000000" stroke="none" 
	d="
M356.099243,114.378494 
	C375.336700,108.422676 394.602386,103.143471 414.573975,99.014633 
	C415.125244,98.774437 415.269958,98.545784 415.647827,98.649353 
	C415.944092,99.410240 416.007141,99.838913 416.094208,100.592026 
	C416.037170,101.790794 415.967804,102.663467 416.675903,103.714577 
	C416.952301,105.339355 417.029510,106.703987 417.129700,108.478333 
	C417.043335,109.766541 416.965637,110.641151 417.664490,111.708496 
	C417.904877,112.742233 417.948029,113.511948 417.940063,114.664810 
	C417.791534,115.259033 417.694183,115.470108 417.287506,115.842155 
	C408.406433,116.221130 400.525299,119.617935 392.351501,121.578346 
	C380.116089,124.512909 368.094910,128.340652 355.639648,131.868530 
	C355.550049,126.225906 355.803375,120.503288 356.099243,114.378494 
z"/>
<path fill="#059475" opacity="1.000000" stroke="none" 
	d="
M416.984070,116.419167 
	C417.149506,115.762627 417.341583,115.540031 417.721649,115.191666 
	C418.188721,116.798111 417.694214,118.665787 418.729248,120.692467 
	C418.397278,121.050735 418.004578,121.032661 417.317566,121.005028 
	C417.012177,119.608711 417.001068,118.221962 416.984070,116.419167 
z"/>
<path fill="#0C986B" opacity="1.000000" stroke="none" 
	d="
M412.894196,80.645096 
	C411.611237,80.489014 411.000854,79.728760 411.930237,78.156242 
	C412.924530,78.535835 412.911102,79.430290 412.894196,80.645096 
z"/>
<path fill="#059475" opacity="1.000000" stroke="none" 
	d="
M417.892822,111.640640 
	C416.584137,111.471657 416.002075,110.687630 416.972351,109.116531 
	C417.980347,109.513145 417.920105,110.421150 417.892822,111.640640 
z"/>
<path fill="#059475" opacity="1.000000" stroke="none" 
	d="
M416.901459,103.645325 
	C415.613434,103.488037 414.999359,102.725380 415.942474,101.145233 
	C416.912079,101.539490 416.899567,102.434593 416.901459,103.645325 
z"/>
<path fill="#0C986B" opacity="1.000000" stroke="none" 
	d="
M413.887695,84.684952 
	C413.065796,84.699547 412.360046,84.361740 412.990173,83.104645 
	C413.387512,83.405701 413.645935,83.899330 413.887695,84.684952 
z"/>
<path fill="#059475" opacity="1.000000" stroke="none" 
	d="
M415.919678,98.609962 
	C415.881012,98.981567 415.431183,98.997803 415.205872,99.000443 
	C414.995728,97.880669 415.010925,96.758255 415.039215,95.212341 
	C416.177673,95.722427 415.941132,97.013718 415.919678,98.609962 
z"/>
<path fill="#0C986B" opacity="1.000000" stroke="none" 
	d="
M414.920380,91.731995 
	C414.727631,91.750183 414.679474,91.520432 414.818634,91.161575 
	C414.880219,91.053459 414.939240,91.505058 414.920380,91.731995 
z"/>
<path fill="#4EA9C9" opacity="1.000000" stroke="none" 
	d="
M292.364746,67.561470 
	C303.881439,67.106476 313.660217,62.440987 323.959686,60.127522 
	C327.672821,59.293484 331.321075,58.200977 335.570801,58.006596 
	C340.377502,60.991684 339.267975,65.782738 339.907043,70.433891 
	C339.852539,71.749229 339.994110,72.635567 339.556885,73.896545 
	C338.944855,75.024391 337.845367,75.365219 337.677277,76.044319 
	C335.832031,83.498344 329.013214,83.300011 323.646545,84.974197 
	C317.802673,86.797256 311.672150,87.708435 305.893890,89.803429 
	C300.134674,91.891525 294.752136,92.716133 290.302795,86.522873 
	C289.646423,80.074188 288.275208,73.868744 292.364746,67.561470 
z"/>
<path fill="#38A3C9" opacity="1.000000" stroke="none" 
	d="
M338.334930,71.308617 
	C337.362885,66.949135 336.692444,62.890598 336.006714,58.417892 
	C335.993011,56.936718 335.994568,55.869701 335.992645,54.402752 
	C342.953918,54.003231 349.920227,54.089722 356.882629,53.961830 
	C359.680847,53.910431 361.763275,54.571545 362.869659,57.757515 
	C363.085480,59.435467 363.082886,60.807590 363.135803,62.588352 
	C362.372620,67.308548 361.553986,71.620110 360.565002,76.304016 
	C354.726135,73.383263 348.471466,73.198158 342.170471,73.201332 
	C340.797424,73.202019 339.566681,72.690224 338.334930,71.308617 
z"/>
<path fill="#3F82B6" opacity="1.000000" stroke="none" 
	d="
M270.701660,61.014900 
	C270.655914,57.959099 270.701721,54.907429 270.656677,51.405510 
	C270.680573,48.922131 270.795349,46.889004 270.930298,44.418831 
	C274.780365,47.113094 279.297729,47.203655 283.924469,47.025402 
	C287.015594,46.906303 290.136780,46.799446 293.548462,47.897877 
	C293.802307,54.027714 292.478790,60.010811 293.035675,66.555878 
	C293.050079,67.021996 292.987885,66.991608 292.956055,66.978027 
	C291.678711,68.318787 290.200500,68.718552 288.429260,68.148689 
	C285.701172,67.270988 282.850525,67.261810 280.057709,67.399414 
	C275.686310,67.614799 272.727783,66.053764 271.264709,61.341690 
	C270.976105,61.007515 270.793182,61.019028 270.701660,61.014900 
z"/>
<path fill="#4A8DBE" opacity="1.000000" stroke="none" 
	d="
M290.394135,112.805603 
	C286.941467,111.617172 283.832855,110.571526 280.418671,110.993698 
	C276.752930,111.446983 274.148804,109.418091 271.282166,107.105865 
	C270.925140,100.617935 270.896271,94.257462 270.810120,87.426620 
	C270.809875,86.212776 270.866913,85.469299 270.940674,84.353027 
	C277.946838,83.195328 285.039032,81.734459 291.485382,87.278625 
	C294.386383,91.436592 293.240814,95.764328 293.134216,99.940529 
	C293.076111,102.216316 292.491699,104.479134 292.521057,107.234261 
	C292.501923,109.521843 292.382843,111.321243 290.394135,112.805603 
z"/>
<path fill="#4387B9" opacity="1.000000" stroke="none" 
	d="
M291.174896,87.683914 
	C287.612640,86.279480 284.066711,85.674332 280.344604,85.998695 
	C277.284851,86.265343 274.394745,85.709030 271.332611,84.084808 
	C270.923187,78.950867 270.888947,73.921516 270.795746,68.423393 
	C270.808380,65.928925 270.880035,63.903225 270.963898,61.442520 
	C275.052460,65.170120 280.227142,65.386810 285.541748,65.017441 
	C287.996948,64.846794 289.859955,66.613411 292.542603,66.933731 
	C292.392059,73.051041 291.859894,79.137650 291.187531,85.613998 
	C291.371765,86.410622 291.488098,86.870171 291.174896,87.683914 
z"/>
<path fill="#57ADC5" opacity="1.000000" stroke="none" 
	d="
M289.988159,113.437363 
	C290.210388,111.552765 290.440125,110.113205 290.807709,108.335388 
	C294.576416,104.331390 299.682983,104.357147 304.153656,103.106354 
	C314.992401,100.073906 325.897095,97.265099 336.686340,94.045769 
	C338.343933,93.551163 339.902069,93.274872 341.803833,94.535583 
	C343.601624,98.670021 345.378082,102.487953 342.347473,106.773125 
	C336.494843,111.230080 329.759888,112.014816 323.453613,113.837555 
	C314.386810,116.458191 305.203186,118.672447 296.097504,121.162872 
	C294.253448,121.667229 292.529541,121.738823 290.385132,121.081581 
	C290.014954,118.632278 290.005310,116.257339 289.988159,113.437363 
z"/>
<path fill="#3199BE" opacity="1.000000" stroke="none" 
	d="
M341.964478,107.263306 
	C341.614624,103.297768 341.298737,99.586006 340.970581,95.442703 
	C339.322327,93.423943 338.643738,91.601578 339.848572,88.946060 
	C346.044525,85.197670 354.344299,85.948669 357.634857,90.524323 
	C358.263062,98.114960 356.211151,105.029076 355.879211,112.537308 
	C351.703339,110.765236 346.663940,111.038765 342.416382,108.112572 
	C342.048981,107.854713 342.023712,107.685898 341.964478,107.263306 
z"/>
<path fill="#349FC4" opacity="1.000000" stroke="none" 
	d="
M358.000488,90.775879 
	C352.807251,88.058823 347.251801,89.221878 341.400818,88.990662 
	C337.084259,86.582085 335.647034,80.774742 337.683594,74.360359 
	C337.984253,73.260704 337.999878,72.509560 338.024414,71.383041 
	C342.836273,71.007301 347.643707,71.134735 352.440735,70.965881 
	C356.239716,70.832169 358.862823,72.136871 360.203827,76.284943 
	C359.943298,80.888298 359.491943,85.100235 358.976562,89.643753 
	C358.607483,90.113068 358.351379,90.313400 358.000488,90.775879 
z"/>
<path fill="#52ABC7" opacity="1.000000" stroke="none" 
	d="
M337.634216,74.112610 
	C338.863892,78.765793 339.759155,83.519745 340.793518,88.631119 
	C340.948730,90.709236 340.964844,92.429947 340.969604,94.580902 
	C326.883667,100.338493 312.062286,103.085831 297.715271,107.478806 
	C295.871460,108.043381 293.793671,107.843857 291.384918,107.997719 
	C288.964600,101.632530 292.089874,95.278702 290.969666,88.450684 
	C290.972565,87.544983 290.991608,87.104538 291.028992,86.333923 
	C291.376587,86.040955 291.833252,85.950714 292.016541,86.133934 
	C297.179871,91.295349 302.521637,88.041054 307.872070,86.565475 
	C313.933014,84.893959 319.998230,83.202896 326.134399,81.850609 
	C330.977661,80.783241 334.880890,78.667526 337.634216,74.112610 
z"/>
</svg>