<svg version="1.1" id="Layer_1" xmlns="http://www.w3.org/2000/svg" xmlns:xlink="http://www.w3.org/1999/xlink" x="0px" y="0px"
	 width="100%" viewBox="0 0 300 168" enable-background="new 0 0 300 168" xml:space="preserve">
<path fill="#FFFEFE" opacity="1.000000" stroke="none" 
	d="
M188.000000,169.000000 
	C125.333344,169.000000 63.166683,169.000000 1.000017,169.000000 
	C1.000011,113.000015 1.000011,57.000027 1.000006,1.000032 
	C100.999969,1.000021 200.999939,1.000021 300.999939,1.000011 
	C300.999939,56.999969 300.999939,112.999939 300.999969,168.999954 
	C263.500000,169.000000 226.000000,169.000000 188.000000,169.000000 
M125.217842,98.561127 
	C127.878998,91.730904 127.068054,89.128487 120.869461,84.531616 
	C123.914078,81.607964 125.973976,78.367371 124.208069,73.940399 
	C122.420509,69.459114 118.773323,67.109535 114.263268,66.896378 
	C106.660835,66.537056 99.029091,66.797874 91.237228,66.797874 
	C91.237228,79.242699 91.237228,91.434708 91.237228,103.822586 
	C98.584526,103.822586 105.708542,104.129173 112.789383,103.708687 
	C117.102562,103.452568 121.963493,103.701286 125.217842,98.561127 
M43.311180,51.755058 
	C23.552280,57.054596 12.334792,76.753899 17.966175,96.264030 
	C23.344234,114.896507 43.694405,125.756096 62.608501,120.086800 
	C80.639633,114.682144 91.526672,95.449120 86.827545,77.301460 
	C81.977417,58.570637 63.794411,47.594833 43.311180,51.755058 
M274.617371,95.436661 
	C274.617371,98.551094 274.617371,101.665520 274.617371,104.779480 
	C278.555420,104.779480 281.974976,104.779480 285.427887,104.779480 
	C285.427887,92.281815 285.427887,80.071335 285.427887,67.635963 
	C281.736603,67.635963 278.357208,67.635963 274.680115,67.635963 
	C274.680115,72.221893 274.680115,76.499672 274.680115,81.183006 
	C270.036560,81.183006 265.690887,81.183006 261.020386,81.183006 
	C261.020386,76.617516 261.020386,72.332115 261.020386,67.953308 
	C257.157166,67.953308 253.625732,67.953308 250.227158,67.953308 
	C250.227158,80.536240 250.227158,92.755402 250.227158,104.788651 
	C254.000671,104.788651 257.405579,104.788651 261.200012,104.788651 
	C261.200012,99.717369 261.200012,94.971710 261.200012,90.204277 
	C265.878387,90.204277 270.141693,90.204277 274.617523,90.204277 
	C274.617523,91.798065 274.617523,93.123413 274.617371,95.436661 
M166.564301,74.164368 
	C161.912064,66.288918 150.171005,64.327324 141.085876,67.440140 
	C133.074692,70.184998 129.466675,77.011383 129.927383,87.982414 
	C130.319794,97.327332 136.678604,103.981094 146.168594,104.976952 
	C158.081909,106.227112 166.948593,101.521294 168.424545,91.788170 
	C169.251144,86.337082 167.522644,80.498535 166.564301,74.164368 
M203.896164,99.185730 
	C207.550369,90.581261 204.826828,85.111588 195.737015,82.885742 
	C192.678574,82.136810 189.496521,81.757111 186.570053,80.671829 
	C185.401840,80.238586 184.002350,78.278168 184.113739,77.151970 
	C184.224457,76.032417 186.212769,74.124451 187.181870,74.237747 
	C190.785873,74.659050 194.309235,75.770081 198.787064,76.843765 
	C199.865784,75.823685 201.894302,73.905434 203.948563,71.962830 
	C196.060104,65.275253 187.756119,64.177078 179.386887,68.378586 
	C175.634125,70.262543 173.351089,73.216583 173.111603,77.303452 
	C172.866425,81.487450 174.964020,84.875076 178.757935,86.514847 
	C182.669708,88.205566 186.977661,88.967041 190.932220,90.577293 
	C192.642929,91.273895 193.901825,93.080078 195.365952,94.382248 
	C193.521408,95.421486 191.529770,97.520302 189.861649,97.288727 
	C185.866562,96.734131 182.023636,95.083458 177.505295,93.685204 
	C176.154144,94.956520 174.285065,96.715141 172.411118,98.478348 
	C181.283340,107.429604 196.170959,107.920616 203.896164,99.185730 
M208.988693,82.894661 
	C207.675034,95.905258 216.290359,103.383736 223.844940,105.171799 
	C233.351944,107.421982 241.403152,104.848587 245.097366,97.822327 
	C242.821411,96.302559 240.515244,94.762627 238.293030,93.278748 
	C230.047836,98.863022 223.735153,97.924599 220.781311,90.860641 
	C218.852905,86.248886 219.892426,80.160019 223.072845,77.438423 
	C226.884079,74.177002 229.996429,74.426956 235.577759,78.029785 
	C236.512756,78.633339 238.293625,78.626152 239.368958,78.165924 
	C241.557007,77.229462 243.530289,75.791229 245.819016,74.424202 
	C240.031448,67.454903 232.928238,65.222420 224.667068,66.717239 
	C216.110626,68.265480 210.946335,73.557594 208.988693,82.894661 
z"/>
<path fill="#FF0404" opacity="1.000000" stroke="none" 
	d="
M125.053223,98.906700 
	C121.963493,103.701286 117.102562,103.452568 112.789383,103.708687 
	C105.708542,104.129173 98.584526,103.822586 91.237228,103.822586 
	C91.237228,91.434708 91.237228,79.242699 91.237228,66.797874 
	C99.029091,66.797874 106.660835,66.537056 114.263268,66.896378 
	C118.773323,67.109535 122.420509,69.459114 124.208069,73.940399 
	C125.973976,78.367371 123.914078,81.607964 120.869461,84.531616 
	C127.068054,89.128487 127.878998,91.730904 125.053223,98.906700 
M114.248863,90.153656 
	C110.314835,89.480659 106.380806,88.807663 102.212677,88.094620 
	C102.212677,91.653931 102.212677,94.178131 102.212677,96.901886 
	C105.030136,96.901886 107.505608,97.032875 109.961823,96.871277 
	C113.673035,96.627090 116.043022,95.125435 114.248863,90.153656 
M112.198990,74.938324 
	C108.702217,74.526131 105.205444,74.113937 101.701912,73.700943 
	C101.701912,76.943314 101.701912,79.293594 101.701912,81.591515 
	C104.779724,81.591515 107.492668,81.987953 110.031456,81.492310 
	C113.289574,80.856247 115.082397,78.902534 112.198990,74.938324 
z"/>
<path fill="#0B0B0B" opacity="1.000000" stroke="none" 
	d="
M43.701378,51.629906 
	C63.794411,47.594833 81.977417,58.570637 86.827545,77.301460 
	C91.526672,95.449120 80.639633,114.682144 62.608501,120.086800 
	C43.694405,125.756096 23.344234,114.896507 17.966175,96.264030 
	C12.334792,76.753899 23.552280,57.054596 43.701378,51.629906 
M75.831474,65.707001 
	C74.898445,64.759201 74.024078,63.743908 73.023331,62.874008 
	C62.666149,53.871071 48.102245,52.446445 36.432274,59.265640 
	C25.209532,65.823502 18.807964,79.521187 21.365076,91.505516 
	C24.175720,104.678062 33.935123,114.476166 46.529625,116.769859 
	C59.238251,119.084358 72.282349,113.172211 78.992439,102.056320 
	C85.840996,90.711052 84.826797,77.534622 75.831474,65.707001 
z"/>
<path fill="#FF0606" opacity="1.000000" stroke="none" 
	d="
M274.617432,94.942711 
	C274.617523,93.123413 274.617523,91.798065 274.617523,90.204277 
	C270.141693,90.204277 265.878387,90.204277 261.200012,90.204277 
	C261.200012,94.971710 261.200012,99.717369 261.200012,104.788651 
	C257.405579,104.788651 254.000671,104.788651 250.227158,104.788651 
	C250.227158,92.755402 250.227158,80.536240 250.227158,67.953308 
	C253.625732,67.953308 257.157166,67.953308 261.020386,67.953308 
	C261.020386,72.332115 261.020386,76.617516 261.020386,81.183006 
	C265.690887,81.183006 270.036560,81.183006 274.680115,81.183006 
	C274.680115,76.499672 274.680115,72.221893 274.680115,67.635963 
	C278.357208,67.635963 281.736603,67.635963 285.427887,67.635963 
	C285.427887,80.071335 285.427887,92.281815 285.427887,104.779480 
	C281.974976,104.779480 278.555420,104.779480 274.617371,104.779480 
	C274.617371,101.665520 274.617371,98.551094 274.617432,94.942711 
z"/>
<path fill="#FF0404" opacity="1.000000" stroke="none" 
	d="
M166.754852,74.499466 
	C167.522644,80.498535 169.251144,86.337082 168.424545,91.788170 
	C166.948593,101.521294 158.081909,106.227112 146.168594,104.976952 
	C136.678604,103.981094 130.319794,97.327332 129.927383,87.982414 
	C129.466675,77.011383 133.074692,70.184998 141.085876,67.440140 
	C150.171005,64.327324 161.912064,66.288918 166.754852,74.499466 
M158.878021,86.334213 
	C158.870361,81.984703 158.156357,77.930824 153.532227,76.064987 
	C149.520859,74.446388 145.450760,74.651978 142.501877,77.986694 
	C139.102631,81.830719 139.336456,86.563843 140.957581,91.153183 
	C142.403976,95.247795 145.831894,96.225174 149.755142,96.150368 
	C155.447342,96.041832 157.227371,94.280594 158.878021,86.334213 
z"/>
<path fill="#FF0606" opacity="1.000000" stroke="none" 
	d="
M203.691895,99.501022 
	C196.170959,107.920616 181.283340,107.429604 172.411118,98.478348 
	C174.285065,96.715141 176.154144,94.956520 177.505295,93.685204 
	C182.023636,95.083458 185.866562,96.734131 189.861649,97.288727 
	C191.529770,97.520302 193.521408,95.421486 195.365952,94.382248 
	C193.901825,93.080078 192.642929,91.273895 190.932220,90.577293 
	C186.977661,88.967041 182.669708,88.205566 178.757935,86.514847 
	C174.964020,84.875076 172.866425,81.487450 173.111603,77.303452 
	C173.351089,73.216583 175.634125,70.262543 179.386887,68.378586 
	C187.756119,64.177078 196.060104,65.275253 203.948563,71.962830 
	C201.894302,73.905434 199.865784,75.823685 198.787064,76.843765 
	C194.309235,75.770081 190.785873,74.659050 187.181870,74.237747 
	C186.212769,74.124451 184.224457,76.032417 184.113739,77.151970 
	C184.002350,78.278168 185.401840,80.238586 186.570053,80.671829 
	C189.496521,81.757111 192.678574,82.136810 195.737015,82.885742 
	C204.826828,85.111588 207.550369,90.581261 203.691895,99.501022 
z"/>
<path fill="#FF0606" opacity="1.000000" stroke="none" 
	d="
M209.012939,82.463257 
	C210.946335,73.557594 216.110626,68.265480 224.667068,66.717239 
	C232.928238,65.222420 240.031448,67.454903 245.819016,74.424202 
	C243.530289,75.791229 241.557007,77.229462 239.368958,78.165924 
	C238.293625,78.626152 236.512756,78.633339 235.577759,78.029785 
	C229.996429,74.426956 226.884079,74.177002 223.072845,77.438423 
	C219.892426,80.160019 218.852905,86.248886 220.781311,90.860641 
	C223.735153,97.924599 230.047836,98.863022 238.293030,93.278748 
	C240.515244,94.762627 242.821411,96.302559 245.097366,97.822327 
	C241.403152,104.848587 233.351944,107.421982 223.844940,105.171799 
	C216.290359,103.383736 207.675034,95.905258 209.012939,82.463257 
z"/>
<path fill="#FFF9F9" opacity="1.000000" stroke="none" 
	d="
M114.516388,90.490143 
	C116.043022,95.125435 113.673035,96.627090 109.961823,96.871277 
	C107.505608,97.032875 105.030136,96.901886 102.212677,96.901886 
	C102.212677,94.178131 102.212677,91.653931 102.212677,88.094620 
	C106.380806,88.807663 110.314835,89.480659 114.516388,90.490143 
z"/>
<path fill="#FFECEC" opacity="1.000000" stroke="none" 
	d="
M112.526093,75.173019 
	C115.082397,78.902534 113.289574,80.856247 110.031456,81.492310 
	C107.492668,81.987953 104.779724,81.591515 101.701912,81.591515 
	C101.701912,79.293594 101.701912,76.943314 101.701912,73.700943 
	C105.205444,74.113937 108.702217,74.526131 112.526093,75.173019 
z"/>
<path fill="#FAFAFA" opacity="1.000000" stroke="none" 
	d="
M76.035973,66.004852 
	C84.826797,77.534622 85.840996,90.711052 78.992439,102.056320 
	C72.282349,113.172211 59.238251,119.084358 46.529625,116.769859 
	C33.935123,114.476166 24.175720,104.678062 21.365076,91.505516 
	C18.807964,79.521187 25.209532,65.823502 36.432274,59.265640 
	C48.102245,52.446445 62.666149,53.871071 73.023331,62.874008 
	C74.024078,63.743908 74.898445,64.759201 76.035973,66.004852 
M36.623718,102.891342 
	C36.623718,101.074562 36.623718,99.257782 36.623718,97.264969 
	C46.765415,97.264969 56.668629,97.264969 66.927231,97.264969 
	C66.927231,98.950546 66.897087,100.408791 66.935555,101.865234 
	C66.975510,103.377579 67.081833,104.888176 67.174103,106.692238 
	C85.208298,95.873810 81.297440,71.590233 66.797325,65.492729 
	C66.797325,69.053108 66.797325,72.430786 66.797325,75.633072 
	C56.459438,75.633072 46.600300,75.633072 36.357563,75.633072 
	C36.357563,72.211823 36.357563,69.148285 36.357563,65.856995 
	C21.862621,75.394379 21.002222,94.989738 34.207626,104.873718 
	C36.065502,106.264290 36.774433,106.149048 36.623718,102.891342 
z"/>
<path fill="#FFF8F8" opacity="1.000000" stroke="none" 
	d="
M158.861572,86.747406 
	C157.227371,94.280594 155.447342,96.041832 149.755142,96.150368 
	C145.831894,96.225174 142.403976,95.247795 140.957581,91.153183 
	C139.336456,86.563843 139.102631,81.830719 142.501877,77.986694 
	C145.450760,74.651978 149.520859,74.446388 153.532227,76.064987 
	C158.156357,77.930824 158.870361,81.984703 158.861572,86.747406 
z"/>
<path fill="#090909" opacity="1.000000" stroke="none" 
	d="
M36.623795,103.312660 
	C36.774433,106.149048 36.065502,106.264290 34.207626,104.873718 
	C21.002222,94.989738 21.862621,75.394379 36.357563,65.856995 
	C36.357563,69.148285 36.357563,72.211823 36.357563,75.633072 
	C46.600300,75.633072 56.459438,75.633072 66.797325,75.633072 
	C66.797325,72.430786 66.797325,69.053108 66.797325,65.492729 
	C81.297440,71.590233 85.208298,95.873810 67.174103,106.692238 
	C67.081833,104.888176 66.975510,103.377579 66.935555,101.865234 
	C66.897087,100.408791 66.927231,98.950546 66.927231,97.264969 
	C56.668629,97.264969 46.765415,97.264969 36.623718,97.264969 
	C36.623718,99.257782 36.623718,101.074562 36.623795,103.312660 
M48.509808,92.991722 
	C54.470177,92.991722 60.430550,92.991722 66.424255,92.991722 
	C66.424255,88.498299 66.424255,84.514725 66.424255,80.292862 
	C56.534725,80.292862 46.777225,80.292862 36.863258,80.292862 
	C36.863258,84.528397 36.863258,88.585785 36.863258,92.991722 
	C40.569195,92.991722 44.041103,92.991722 48.509808,92.991722 
M72.236397,75.412804 
	C72.026062,75.209175 71.842194,74.906502 71.595085,74.840477 
	C71.455399,74.803154 71.040375,75.154083 71.039673,75.331284 
	C71.010803,82.604279 71.014977,89.877403 71.014977,98.513336 
	C76.360443,90.316261 76.700699,83.270470 72.236397,75.412804 
M32.902992,77.304565 
	C32.374191,76.941727 31.424761,76.212700 31.376461,76.268173 
	C27.457966,80.769165 28.107573,91.433380 32.896679,96.649933 
	C32.896679,90.222557 32.896679,84.189705 32.902992,77.304565 
z"/>
<path fill="#FAFAFA" opacity="1.000000" stroke="none" 
	d="
M48.011410,92.991722 
	C44.041103,92.991722 40.569195,92.991722 36.863258,92.991722 
	C36.863258,88.585785 36.863258,84.528397 36.863258,80.292862 
	C46.777225,80.292862 56.534725,80.292862 66.424255,80.292862 
	C66.424255,84.514725 66.424255,88.498299 66.424255,92.991722 
	C60.430550,92.991722 54.470177,92.991722 48.011410,92.991722 
z"/>
<path fill="#F4F4F4" opacity="1.000000" stroke="none" 
	d="
M72.473030,75.706253 
	C76.700699,83.270470 76.360443,90.316261 71.014977,98.513336 
	C71.014977,89.877403 71.010803,82.604279 71.039673,75.331284 
	C71.040375,75.154083 71.455399,74.803154 71.595085,74.840477 
	C71.842194,74.906502 72.026062,75.209175 72.473030,75.706253 
z"/>
<path fill="#E5E5E5" opacity="1.000000" stroke="none" 
	d="
M32.899834,77.730705 
	C32.896679,84.189705 32.896679,90.222557 32.896679,96.649933 
	C28.107573,91.433380 27.457966,80.769165 31.376461,76.268173 
	C31.424761,76.212700 32.374191,76.941727 32.899834,77.730705 
z"/>
</svg>