<svg version="1.1" id="Layer_1" xmlns="http://www.w3.org/2000/svg" xmlns:xlink="http://www.w3.org/1999/xlink" x="0px" y="0px"
	 width="100%" viewBox="0 0 528 464" enable-background="new 0 0 528 464" xml:space="preserve">
<path fill="#000000" opacity="1.000000" stroke="none" 
	d="
M319.690979,235.875977 
	C310.525848,239.723389 301.356323,241.914551 291.814972,242.626434 
	C289.168488,242.823883 286.680756,242.868256 285.498718,239.977722 
	C284.176575,236.744522 281.729980,233.883072 284.391876,229.841293 
	C293.227905,216.424759 305.991119,207.901001 319.713745,200.422989 
	C335.424225,191.861740 352.006195,186.320587 370.026215,185.783585 
	C376.059479,185.603790 377.419800,187.877975 373.914856,193.316101 
	C368.381195,201.901978 361.352020,209.308563 353.294403,215.571869 
	C343.012146,223.564438 331.989716,230.432648 319.690979,235.875977 
z"/>
<path fill="#000000" opacity="1.000000" stroke="none" 
	d="
M220.307831,199.653595 
	C235.005844,205.394318 247.490036,213.717194 257.680481,225.320221 
	C262.622162,230.946915 263.116272,233.761993 260.335571,238.166412 
	C257.244415,243.062546 253.727188,244.081558 246.887268,242.672516 
	C221.650177,237.473602 200.239243,225.556519 182.860443,206.498032 
	C179.819824,203.163559 176.997116,199.674301 176.703232,194.833374 
	C176.513718,191.711517 177.688416,190.063644 180.986679,190.302383 
	C194.471741,191.278503 207.815430,192.844955 220.307831,199.653595 
z"/>
<path fill="#000000" opacity="1.000000" stroke="none" 
	d="
M266.894440,218.520874 
	C266.003204,194.714798 276.774567,176.209915 291.537689,159.437500 
	C294.826355,155.701218 298.335510,152.064514 303.231262,150.332153 
	C307.574066,148.795425 309.794830,149.911774 310.147064,154.424194 
	C312.164154,180.264114 304.040405,202.557205 285.866058,220.975723 
	C280.617767,226.294510 275.167664,226.374023 269.022369,222.747086 
	C267.511505,221.855408 267.337524,220.390289 266.894440,218.520874 
z"/>
<path fill="#000000" opacity="1.000000" stroke="none" 
	d="
M220.930878,188.941284 
	C216.170959,180.596924 213.477631,171.893173 211.869705,162.866547 
	C210.618286,155.841293 212.207428,154.230164 218.981369,155.691544 
	C231.601318,158.414093 240.907028,166.433212 249.220337,175.659637 
	C253.671951,180.600220 257.100983,186.382675 259.838348,192.463974 
	C261.864258,196.964615 263.079468,202.036224 259.463379,206.042480 
	C252.157623,214.136536 248.482758,212.572968 242.182770,209.319336 
	C233.281113,204.722046 226.587494,197.574371 220.930878,188.941284 
z"/>
<path fill="#000000" opacity="1.000000" stroke="none" 
	d="
M254.416107,154.711639 
	C255.894592,148.568985 258.253601,143.261108 261.900970,138.622253 
	C265.039459,134.630585 268.598053,134.633621 271.954376,138.377121 
	C280.992065,148.457397 279.557709,166.442047 274.331329,175.596619 
	C271.845398,179.951004 266.871643,179.524933 262.865021,179.926407 
	C259.387268,180.274918 254.479675,173.392181 253.716934,168.452393 
	C253.025314,163.973175 253.139725,159.515656 254.416107,154.711639 
z"/>
<path fill="#000000" opacity="1.000000" stroke="none" 
	d="
M314.159302,179.377350 
	C319.322693,169.731277 327.400665,164.315475 337.180389,161.157288 
	C340.647797,160.037582 342.035400,161.293381 342.465302,165.195587 
	C343.949188,178.664352 332.745270,191.825073 319.578979,193.762177 
	C317.757141,192.430817 319.590973,191.166077 319.952911,189.592972 
	C316.960449,190.388443 315.137573,187.161636 312.166504,188.477325 
	C311.463318,185.076981 313.012421,182.454376 314.159302,179.377350 
z"/>
<path fill="#000000" opacity="1.000000" stroke="none" 
	d="
M384.198944,314.605652 
	C381.633759,307.116241 379.219360,299.989349 376.705292,292.568115 
	C380.326416,291.696777 381.464630,293.715149 382.258575,295.924042 
	C384.056183,300.925018 385.655701,305.997162 387.451782,310.998718 
	C388.207977,313.104431 388.544189,315.527985 390.936523,316.954987 
	C393.098541,315.367828 393.154327,312.873871 393.542358,310.728180 
	C394.530853,305.261993 397.007141,300.343292 398.823273,295.183807 
	C399.425964,293.471588 400.545898,292.236572 402.419708,292.220978 
	C404.416382,292.204315 405.188477,293.829620 405.846008,295.388184 
	C408.042175,300.593781 410.150116,305.826935 411.681427,311.285400 
	C412.148376,312.949921 412.132355,315.018280 414.614807,316.176270 
	C421.035492,309.517242 418.952393,298.004913 427.514221,291.626801 
	C427.783478,293.075684 428.165405,293.795074 427.972046,294.289368 
	C424.584351,302.949371 421.979523,311.935791 417.691010,320.215485 
	C415.848572,323.772644 412.447418,323.511261 410.444305,319.895966 
	C408.245209,315.926880 407.333069,311.529755 406.354340,307.137451 
	C405.839996,304.829041 405.800873,302.123566 403.292603,300.462280 
	C400.182983,301.647552 399.244934,304.293396 398.406311,306.991089 
	C397.323090,310.475830 396.409119,314.019196 395.178986,317.450073 
	C394.414642,319.581818 393.681000,322.044281 390.755554,322.248810 
	C387.563049,322.471954 386.647064,319.921539 385.501251,317.728210 
	C385.041321,316.847931 384.729156,315.890472 384.198944,314.605652 
z"/>
<path fill="#000000" opacity="1.000000" stroke="none" 
	d="
M178.777435,294.076141 
	C184.239807,299.770172 185.798386,307.981232 182.915482,314.583344 
	C180.352890,320.451935 175.466660,323.432739 168.589554,323.322693 
	C159.847809,323.182800 153.731094,316.370850 154.080429,307.164490 
	C154.613602,293.113770 166.232468,286.767517 178.777435,294.076141 
M165.653976,319.105804 
	C172.054443,320.271118 175.925674,318.835327 178.071426,314.500336 
	C180.719879,309.149719 179.956375,301.525482 176.422623,298.036163 
	C172.135941,293.803375 168.315308,293.460541 163.498566,296.876434 
	C156.006149,302.189819 156.708969,312.668335 165.653976,319.105804 
z"/>
<path fill="#000000" opacity="1.000000" stroke="none" 
	d="
M369.522949,315.098389 
	C363.952698,323.276459 355.808411,325.479065 348.126068,321.190002 
	C341.258087,317.355560 338.488342,306.528717 342.343201,298.584686 
	C345.421387,292.241150 354.507629,289.089905 361.842773,291.821960 
	C368.430267,294.275574 372.464355,302.173431 371.022614,309.938049 
	C370.720276,311.566406 370.147552,313.144592 369.522949,315.098389 
M352.861420,295.434967 
	C346.260498,298.891327 344.536713,301.981812 345.295685,308.998993 
	C346.056335,316.031708 351.190582,320.467773 357.754669,319.763733 
	C363.611145,319.135651 367.672180,312.379883 366.538269,305.151703 
	C365.501007,298.539734 359.701599,294.108704 352.861420,295.434967 
z"/>
<path fill="#000000" opacity="1.000000" stroke="none" 
	d="
M205.399567,173.478333 
	C207.359238,174.339325 208.401733,175.597794 209.111343,177.144745 
	C210.481949,180.132660 211.233459,183.583496 209.369934,186.187683 
	C207.358002,188.999237 203.883301,188.530457 200.687225,187.538284 
	C194.291855,185.552902 188.645264,182.818192 186.526123,175.689117 
	C185.252258,171.403732 186.184891,169.890900 190.777069,169.717148 
	C195.867126,169.524551 200.598602,170.902420 205.399567,173.478333 
z"/>
<path fill="#000000" opacity="1.000000" stroke="none" 
	d="
M316.897064,281.260559 
	C316.589722,283.343628 315.182129,283.327332 313.846222,283.337463 
	C311.681366,283.353912 309.515594,283.319550 307.350891,283.273163 
	C298.777802,283.089386 295.833130,287.607483 299.153046,295.619415 
	C300.029999,297.735718 301.445862,297.613037 303.181366,297.427307 
	C305.655823,297.162445 308.140198,296.957764 310.625641,296.840973 
	C311.904907,296.780853 312.943237,297.325226 312.975830,298.811035 
	C313.006714,300.219849 312.086395,301.017151 310.827881,301.116119 
	C308.508575,301.298462 306.160461,301.443817 303.846344,301.284821 
	C300.432556,301.050232 298.818024,302.761841 298.632538,305.872131 
	C298.385101,310.021698 298.440918,314.188538 298.297272,318.345551 
	C298.242645,319.926788 298.635712,322.143433 296.103638,321.963867 
	C293.668701,321.791199 294.365051,319.774658 294.341461,318.113922 
	C294.187836,307.296814 294.037354,296.477264 293.647919,285.667053 
	C293.490509,281.297333 295.417694,279.418152 299.530182,279.687958 
	C305.279053,280.065094 311.164307,278.575317 316.897064,281.260559 
z"/>
<path fill="#000000" opacity="1.000000" stroke="none" 
	d="
M271.245331,290.751709 
	C274.464081,291.116730 277.302765,291.300049 280.027222,291.956909 
	C282.372406,292.522339 283.768890,294.024292 282.482422,296.802765 
	C279.411346,297.147736 277.018341,295.276855 274.296875,294.747681 
	C270.861938,294.079865 267.934143,295.089111 266.996094,298.266846 
	C265.945923,301.824341 269.005615,302.951141 271.880310,303.761566 
	C274.433014,304.481232 277.036469,305.149323 279.442017,306.230591 
	C282.542542,307.624237 284.307281,310.098175 284.302216,313.701813 
	C284.297028,317.388519 282.856750,320.162964 279.512085,321.778290 
	C274.325745,324.283081 269.154297,323.759338 264.154633,321.275482 
	C262.007050,320.208527 260.978180,318.430756 262.484863,315.721710 
	C266.022186,317.491119 269.147308,320.045685 273.458527,319.799316 
	C277.182739,319.586426 279.781586,318.053772 280.184967,314.487030 
	C280.575012,311.038147 277.878632,309.679718 274.796265,309.176178 
	C271.822754,308.690430 268.954224,307.888336 266.369263,306.257233 
	C263.565369,304.488068 261.255280,302.389984 261.753632,298.669952 
	C262.216248,295.216675 264.277374,292.962524 267.472717,291.737183 
	C268.551361,291.323547 269.699371,291.090881 271.245331,290.751709 
z"/>
<path fill="#000000" opacity="1.000000" stroke="none" 
	d="
M240.908813,319.057953 
	C246.969894,317.184937 248.953156,313.128510 248.720169,307.454346 
	C248.549500,303.298096 248.697830,299.127075 248.765167,294.963623 
	C248.787643,293.573578 249.155182,292.220642 250.840332,292.034424 
	C252.265869,291.876892 253.151062,292.845795 253.136078,294.108368 
	C253.031738,302.897003 253.949509,311.707092 252.634415,320.468445 
	C252.598038,320.710724 252.160538,320.892792 251.634644,321.334045 
	C248.810776,319.178192 246.282776,320.620544 243.341858,321.963287 
	C233.985947,326.235168 228.019897,322.279358 227.674271,311.965668 
	C227.496033,306.647095 227.313980,301.328583 227.104660,296.011200 
	C227.035034,294.242188 227.177826,292.287323 229.284592,292.209320 
	C231.797455,292.116241 231.194748,294.455536 231.300751,295.973907 
	C231.716690,301.931030 230.588425,307.952545 232.191132,313.869965 
	C233.774353,319.715515 234.480942,320.225555 240.908813,319.057953 
z"/>
<path fill="#000000" opacity="1.000000" stroke="none" 
	d="
M128.601929,313.092468 
	C128.981705,302.685455 127.544975,292.744904 128.535309,282.753448 
	C128.900223,279.071594 130.244354,277.535095 133.712433,277.842590 
	C138.676331,278.282684 143.704987,277.326111 148.631012,278.630493 
	C150.032761,279.001617 151.345322,279.386017 151.058075,281.126495 
	C150.778534,282.820221 149.357956,283.094147 147.969955,282.791473 
	C144.667374,282.071381 141.325485,282.547668 138.020203,282.291687 
	C134.309433,282.004333 132.896729,284.060059 132.475708,287.218903 
	C132.257156,288.858673 132.423126,290.545776 132.309311,292.204193 
	C132.034760,296.204803 133.185043,298.316925 137.765503,297.062622 
	C139.635513,296.550507 141.728760,296.792664 143.719711,296.805267 
	C144.973557,296.813202 146.041977,297.295105 146.066498,298.797058 
	C146.089706,300.217896 145.135330,300.979370 143.903168,301.098083 
	C141.922592,301.288849 139.896866,301.436310 137.927765,301.234955 
	C133.458267,300.777893 131.940826,302.825378 132.230499,307.057587 
	C132.445953,310.205566 132.326904,313.382050 132.240051,316.542633 
	C132.197159,318.104034 132.529648,320.015472 129.847916,320.438721 
	C127.805038,318.486725 128.978210,315.840057 128.601929,313.092468 
z"/>
<path fill="#000000" opacity="1.000000" stroke="none" 
	d="
M196.921478,302.200165 
	C196.615250,305.056549 196.171249,307.556580 196.349243,310.011566 
	C196.843506,316.828613 203.744431,321.114075 210.588318,319.126160 
	C212.882462,318.459778 214.965805,316.761871 217.449677,317.254578 
	C218.580002,319.155701 217.472351,320.013031 216.358032,320.755157 
	C210.539795,324.630096 201.620026,323.966919 196.295044,319.303192 
	C191.385544,315.003296 190.137970,305.467102 193.557663,298.379272 
	C195.923401,293.475922 203.268738,290.313690 209.861603,291.369934 
	C211.665207,291.658875 213.481522,291.900269 215.260056,292.304169 
	C216.766144,292.646149 218.357315,293.220306 217.675842,295.264282 
	C217.059265,297.113647 215.620285,297.137238 214.011551,296.472778 
	C210.626312,295.074585 207.321579,293.640381 203.500519,295.391968 
	C200.478088,296.777496 197.974075,298.435913 196.921478,302.200165 
z"/>
<path fill="#000000" opacity="1.000000" stroke="none" 
	d="
M329.883789,305.992615 
	C329.899872,310.652649 329.983887,314.815704 329.887970,318.974640 
	C329.858154,320.268158 329.523621,321.845795 327.760529,321.831238 
	C325.977112,321.816559 325.769867,320.288208 325.760223,318.941956 
	C325.676666,307.287445 325.621765,295.632690 325.599335,283.977905 
	C325.596191,282.351746 326.138397,280.882538 328.140137,281.031677 
	C329.907806,281.163391 330.074341,282.671204 330.068726,284.016968 
	C330.038849,291.176147 329.950439,298.335052 329.883789,305.992615 
z"/>
</svg>

