<svg version="1.1" id="Layer_1" xmlns="http://www.w3.org/2000/svg" xmlns:xlink="http://www.w3.org/1999/xlink" x="0px" y="0px"
	 width="100%" viewBox="0 0 538 464" enable-background="new 0 0 538 464" xml:space="preserve">
<path fill="#000000" opacity="1.000000" stroke="none" 
	d="
M257.000000,465.000000 
	C171.333359,465.000000 86.166710,465.000000 1.000046,465.000000 
	C1.000031,310.333405 1.000031,155.666779 1.000015,1.000129 
	C180.333237,1.000086 359.666473,1.000086 538.999756,1.000043 
	C538.999878,155.666534 538.999878,310.333069 538.999939,464.999817 
	C445.166656,465.000000 351.333344,465.000000 257.000000,465.000000 
M297.904999,206.415955 
	C298.237549,205.948669 298.570099,205.481369 299.214386,204.360260 
	C304.378937,194.794861 308.283997,184.784546 310.105804,173.253296 
	C310.357117,171.844864 310.608398,170.436432 310.989166,168.110214 
	C310.943542,164.397583 310.897949,160.684967 310.978180,156.142166 
	C310.592834,154.116226 310.207458,152.090286 309.774567,149.814636 
	C307.177612,149.968475 304.077362,149.211975 302.417328,150.425552 
	C297.304993,154.162918 292.134827,158.147934 288.121277,162.978958 
	C283.088867,169.036331 278.413818,175.658142 275.009521,182.723007 
	C271.804688,189.373932 270.451263,196.916962 268.106262,204.902100 
	C268.134369,206.603241 268.162476,208.304367 268.039337,210.756531 
	C268.009277,212.522141 267.979218,214.287735 267.807709,216.716934 
	C268.258728,218.799683 268.709717,220.882446 269.207336,223.693375 
	C271.430084,224.385147 273.652832,225.076920 276.650726,225.897583 
	C283.352234,224.577286 287.965515,220.355270 292.048279,214.363235 
	C293.821869,211.766281 295.595490,209.169327 297.398560,206.451889 
	C297.398560,206.451889 297.282471,206.408234 297.904999,206.415955 
M246.736328,215.205261 
	C240.829788,211.517303 234.923233,207.829346 228.362442,203.809479 
	C218.161789,198.462601 207.646057,193.599670 196.195023,192.148300 
	C189.838531,191.342636 183.201080,188.112442 175.396851,192.447800 
	C176.967712,196.200623 177.733093,200.633591 180.250320,203.559341 
	C188.114975,212.700378 196.536530,221.436035 207.435669,227.108826 
	C212.851776,229.927811 218.514038,232.273849 224.715195,235.162155 
	C227.788681,236.497635 230.862152,237.833115 234.318436,239.831451 
	C239.689590,241.211334 245.016327,242.811340 250.444931,243.906464 
	C255.433228,244.912750 258.914490,242.304550 259.967407,237.192459 
	C260.299652,235.797684 260.631927,234.402893 261.592499,232.749893 
	C259.955139,230.351486 258.317780,227.953064 256.315918,225.227951 
	C256.028229,225.068497 255.771545,224.869125 255.233322,224.028320 
	C252.820358,221.685974 250.407394,219.343628 247.933746,216.451996 
	C247.643173,216.237106 247.352585,216.022217 246.736328,215.205261 
M287.419281,242.816986 
	C292.595123,242.166183 297.770996,241.515366 303.787903,240.981216 
	C305.239777,240.808640 306.772614,240.879425 308.131470,240.427292 
	C331.996735,232.486725 352.288971,219.040024 369.093231,200.379578 
	C371.542938,197.659241 373.487274,194.408829 375.269531,191.184830 
	C376.856842,188.313492 376.294647,186.114807 372.360565,185.915573 
	C361.407959,185.360840 350.676727,187.278946 340.733368,191.321396 
	C329.153839,196.029068 318.050354,202.022064 307.075348,208.065826 
	C298.467377,212.806076 291.237274,219.392807 285.276367,228.119614 
	C284.236572,229.699646 283.196777,231.279678 282.221130,232.762207 
	C283.070129,234.880447 283.902893,236.958130 284.963440,239.534958 
	C285.002197,239.713715 285.040955,239.892456 285.046326,240.672760 
	C285.676788,241.154755 286.307251,241.636749 287.419281,242.816986 
M267.935913,176.032227 
	C268.950867,176.042023 269.965790,176.051819 271.327484,176.691330 
	C272.568298,176.019348 274.479431,175.642014 274.927948,174.621719 
	C276.452820,171.153030 277.977539,167.538757 278.561951,163.831818 
	C279.865234,155.565155 279.115234,147.564575 273.045746,140.183807 
	C268.653900,134.768875 266.307709,134.691437 261.869537,139.307922 
	C254.624130,146.844498 252.952698,156.102097 253.034012,166.800552 
	C252.884079,171.944763 256.430237,174.908203 259.645599,178.095352 
	C264.113159,182.523682 264.932007,182.325974 267.935913,176.032227 
M404.892670,294.336670 
	C403.108246,293.668213 401.323822,292.999725 399.407074,292.281708 
	C398.882446,295.573517 398.527344,297.801544 397.526703,300.377655 
	C395.480865,306.178040 393.435059,311.978455 391.389221,317.778839 
	C390.847321,317.697815 390.305389,317.616791 389.763489,317.535736 
	C389.132446,315.718811 388.520447,313.894989 387.866730,312.086212 
	C386.016754,306.967560 384.267578,301.806641 382.202209,296.775879 
	C381.716614,295.593109 380.140747,294.857941 379.066467,293.916870 
	C378.736816,294.253418 378.407166,294.589966 378.077515,294.926514 
	C379.049500,297.836823 379.998444,300.755066 380.998352,303.655762 
	C382.975555,309.391510 384.785187,315.200531 387.148163,320.774017 
	C387.593964,321.825470 390.877167,322.855194 391.818939,322.260468 
	C393.585602,321.144806 395.127655,319.013794 395.813446,316.984192 
	C397.219788,312.822021 397.998932,308.447906 399.635681,303.981293 
	C400.082214,303.323853 400.528778,302.666412 401.027069,301.533386 
	C401.027069,301.533386 401.086700,301.058716 401.650513,300.772827 
	C402.421356,300.485138 403.192200,300.197449 404.579926,300.329803 
	C405.021362,301.535126 405.452942,302.744141 405.906036,303.945099 
	C407.926422,309.300446 409.952942,314.653473 412.384277,320.575134 
	C415.484680,322.847168 417.512695,321.875916 418.790405,318.491516 
	C421.466187,311.403778 424.214783,304.342651 426.775299,297.213745 
	C427.043274,296.467682 426.251648,295.341064 425.951630,294.390991 
	C423.806549,296.647461 422.875153,299.053223 421.796478,301.390991 
	C419.236145,306.939880 416.606079,312.456573 413.697876,317.319550 
	C413.096130,315.799164 412.496063,314.278137 411.892395,312.758514 
	C409.547913,306.856598 407.202240,300.955170 404.892670,294.336670 
M181.999466,316.059937 
	C181.999466,316.059937 182.055008,316.141266 182.673965,315.687347 
	C183.119064,311.762665 184.077835,307.814697 183.901520,303.918152 
	C183.542786,295.990326 177.655319,292.896637 171.046860,291.028625 
	C167.088913,289.909851 159.697647,293.000122 157.986877,296.287201 
	C154.438919,303.104126 152.626221,310.081787 157.296249,317.882172 
	C159.844315,319.391113 162.248871,321.264069 164.968994,322.336670 
	C171.530807,324.924011 178.270355,322.545105 181.502762,316.870239 
	C181.693268,316.578796 181.883774,316.287384 181.999466,316.059937 
M227.876999,313.717163 
	C228.172531,320.723145 230.952148,324.196594 236.936462,323.834595 
	C240.011200,323.648560 242.994308,321.947876 246.682739,320.843475 
	C247.550415,320.882660 248.641327,320.599030 249.246613,321.017639 
	C251.696762,322.712158 252.872803,321.235748 252.998917,319.234344 
	C253.496933,311.331268 253.940674,303.408661 253.902344,295.495758 
	C253.886826,292.289948 251.824509,290.758118 248.963379,292.613739 
	C248.627609,298.253571 248.389923,303.456177 247.977066,308.644836 
	C247.784943,311.059448 247.252899,313.446960 246.283127,316.211609 
	C242.739624,317.997528 239.196121,319.783417 234.043488,322.380280 
	C233.181412,315.491394 232.523911,310.237183 231.959747,304.068512 
	C231.975128,301.250519 231.989868,298.432526 232.006073,295.614532 
	C232.026001,292.149872 230.312988,291.427948 228.140167,292.136017 
	C228.140167,296.772247 228.140167,300.877380 228.020218,305.818512 
	C228.037430,307.224060 228.054657,308.629578 227.988235,310.771423 
	C227.995361,311.512115 228.002472,312.252808 227.876999,313.717163 
M129.188995,288.681274 
	C129.215149,289.105164 129.241302,289.529053 129.101242,290.884521 
	C129.101242,300.521149 129.101242,310.157745 129.101242,319.794373 
	C129.937012,319.831970 130.772797,319.869537 131.608566,319.907135 
	C132.011093,311.252106 132.413620,302.597107 132.939148,293.049255 
	C132.965530,291.725067 133.190262,290.368958 132.983261,289.082336 
	C132.174713,284.056671 134.544128,282.596619 139.174606,282.975220 
	C142.249283,283.226654 145.378555,283.084137 148.460129,282.832764 
	C149.579987,282.741394 150.632370,281.823151 151.715530,281.282166 
	C150.706055,280.494537 149.787949,279.515259 148.659470,278.977234 
	C147.676987,278.508789 146.449478,278.340027 145.343155,278.381714 
	C139.841858,278.589081 134.344849,278.909790 128.648560,279.200684 
	C128.817337,281.173462 129.021973,283.565491 129.109589,286.652618 
	C129.160980,287.117554 129.212372,287.582520 129.188995,288.681274 
M341.423187,304.492310 
	C342.436127,308.908539 342.706909,313.689240 344.651215,317.648010 
	C347.041382,322.514404 354.451599,324.299408 359.791382,322.857544 
	C364.690674,321.534607 367.479645,317.985199 370.755554,313.654907 
	C370.837585,312.509247 370.871124,311.357758 371.009064,310.218872 
	C372.467346,298.174896 366.006226,290.872406 353.335144,290.891266 
	C352.892609,290.942200 352.450073,290.993134 351.460480,291.176483 
	C350.982788,291.470367 350.505127,291.764221 349.358246,292.234253 
	C344.592377,294.712128 341.265015,298.085510 341.423187,304.492310 
M208.006042,185.246414 
	C208.367569,183.835342 208.729080,182.424255 209.727463,180.686035 
	C208.763931,178.552948 208.267807,175.043076 206.754547,174.529327 
	C200.766617,172.496552 194.492096,171.236526 188.257690,170.032547 
	C185.313858,169.464050 184.497498,171.222000 185.379105,173.976440 
	C187.987000,182.124313 193.445663,186.796326 201.937759,188.093781 
	C204.464233,188.479782 206.898804,189.440231 208.006042,185.246414 
M275.191132,306.026001 
	C273.592468,305.341034 271.656586,305.008331 270.480255,303.882202 
	C269.001251,302.466339 267.295288,300.394165 267.310181,298.618774 
	C267.320404,297.392944 270.038635,295.257202 271.620941,295.186340 
	C274.278076,295.067383 276.977692,296.355774 279.693237,296.875519 
	C280.923950,297.111084 282.235596,296.923676 283.510529,296.928192 
	C282.659515,295.391998 282.089600,292.837280 280.904877,292.510284 
	C277.332794,291.524536 273.439392,290.730927 269.830933,291.171143 
	C267.167969,291.496002 263.631439,293.306519 262.535736,295.486389 
	C261.356201,297.833008 261.387878,302.578796 262.985718,304.156372 
	C266.257294,307.386536 270.636871,310.298676 276.336334,308.547180 
	C279.099640,310.261078 282.528137,312.555786 280.604218,315.811707 
	C279.273682,318.063416 275.310150,319.788544 272.478912,319.854675 
	C269.194122,319.931488 265.860870,317.935852 261.612518,316.529999 
	C262.691345,318.271332 263.227112,320.002808 264.401215,320.867706 
	C267.841736,323.402100 271.700836,323.942474 276.029083,323.148804 
	C281.997162,322.054474 283.894501,320.331146 283.868988,314.595490 
	C283.843719,308.917358 281.894623,306.852325 275.191132,306.026001 
M206.865433,294.898102 
	C208.897949,295.488403 210.909805,296.438416 212.969437,296.556732 
	C214.656830,296.653625 216.401123,295.760254 218.120193,295.305847 
	C217.993256,294.550934 217.866333,293.796021 217.739410,293.041138 
	C213.846298,292.774689 209.953171,292.508270 205.257797,292.083435 
	C194.753510,292.912140 192.247040,298.645660 192.184158,307.707062 
	C192.143448,313.574707 192.705276,320.351898 200.072617,321.875610 
	C204.842392,322.862122 210.021988,322.260590 214.959839,321.777222 
	C216.270294,321.648926 217.366241,319.329224 219.127991,317.391815 
	C213.333115,318.187531 209.090271,319.280487 204.863770,319.220520 
	C199.647034,319.146576 196.762161,315.126862 196.239471,310.596161 
	C195.415710,303.455688 196.417038,295.818481 206.865433,294.898102 
M294.278717,281.386780 
	C294.153412,283.364899 293.853027,285.349976 293.931610,287.319946 
	C294.396637,298.977783 294.949615,310.632080 295.494263,322.760376 
	C297.719116,322.784515 299.134827,321.946014 299.060974,318.872406 
	C298.922089,313.092133 299.020966,307.306183 299.020966,301.555145 
	C303.041870,301.337616 306.627625,301.321350 310.154938,300.859009 
	C311.436218,300.691101 312.577972,299.458557 313.783417,298.711792 
	C312.399536,298.162018 311.015961,297.153748 309.631683,297.152771 
	C306.180786,297.150330 302.729553,297.606049 299.193848,297.884552 
	C299.193848,292.909393 299.193848,288.602509 299.956635,284.003571 
	C303.486938,283.945221 307.017303,283.838806 310.547516,283.844177 
	C313.240997,283.848297 316.401642,284.998138 317.443268,280.965485 
	C313.917328,280.597717 310.768524,279.989227 307.623901,280.010132 
	C303.406464,280.038147 299.192322,280.552979 294.278717,281.386780 
M312.886810,185.677170 
	C310.526947,188.944061 311.638092,191.120117 315.035217,192.622818 
	C319.067993,194.406662 322.513336,192.796097 326.679443,190.955887 
	C327.797729,190.806900 329.333923,191.077606 329.969971,190.444305 
	C336.686554,183.756607 343.940796,177.404938 343.037445,166.416901 
	C342.577301,160.819733 341.523376,159.900284 335.994019,161.496048 
	C327.554352,163.931732 321.370941,169.602631 315.847321,175.899841 
	C313.876038,178.147171 311.202728,181.163452 312.886810,185.677170 
M260.084991,194.431244 
	C259.535614,192.923370 259.144470,191.333588 258.412659,189.920197 
	C250.391113,174.428162 238.471054,163.135635 222.186493,156.646317 
	C213.472824,153.173950 209.466003,155.125977 211.124756,162.347839 
	C212.778091,169.546234 215.406113,176.551727 218.032776,183.480301 
	C219.079895,186.242325 221.269409,188.571243 223.179810,191.689529 
	C224.183762,192.798004 225.187714,193.906464 226.258163,195.690033 
	C230.694489,202.238678 236.449875,207.165024 244.214386,210.766144 
	C252.260986,213.850632 257.640106,212.651932 260.174469,205.978729 
	C261.370026,202.830795 260.041382,198.724213 260.084991,194.431244 
M325.927521,305.496948 
	C325.913605,310.138153 325.761475,314.785950 325.982513,319.415955 
	C326.038177,320.581940 327.288666,321.690887 327.990051,322.826019 
	C328.650574,321.713989 329.872955,320.608002 329.885040,319.488953 
	C330.010559,307.887848 330.003143,296.283752 329.832672,284.683411 
	C329.814972,283.478851 328.506622,282.293243 327.797119,281.098846 
	C327.207214,282.268433 326.141235,283.424042 326.106354,284.609955 
	C325.911407,291.235199 325.965881,297.867767 325.927521,305.496948 
M141.343933,299.989899 
	C142.692184,299.842346 144.040436,299.694794 145.388672,299.547241 
	C145.356140,299.238708 145.323593,298.930176 145.291061,298.621643 
	C141.845337,298.621643 138.399628,298.621643 134.953918,298.621643 
	C134.942429,299.079041 134.930939,299.536438 134.919449,299.993835 
	C136.775253,299.993835 138.631042,299.993835 141.343933,299.989899 
z"/>
<path fill="#849FB0" opacity="1.000000" stroke="none" 
	d="
M285.929291,227.847031 
	C291.237274,219.392807 298.467377,212.806076 307.075348,208.065826 
	C318.050354,202.022064 329.153839,196.029068 340.733368,191.321396 
	C350.676727,187.278946 361.407959,185.360840 372.360565,185.915573 
	C376.294647,186.114807 376.856842,188.313492 375.269531,191.184830 
	C373.487274,194.408829 371.542938,197.659241 369.093231,200.379578 
	C352.288971,219.040024 331.996735,232.486725 308.131470,240.427292 
	C306.772614,240.879425 305.239777,240.808640 303.273743,240.697571 
	C302.520813,239.988419 302.282043,239.562897 302.438324,239.095932 
	C312.770752,237.023056 321.647552,232.600967 330.367371,226.985626 
	C333.497650,225.336761 336.262482,223.703537 339.373108,221.999908 
	C342.311707,220.184601 344.904236,218.439270 347.497406,216.694885 
	C356.395020,210.709671 363.242004,202.641968 369.928131,194.436783 
	C370.788025,193.381516 370.980347,191.782272 371.481934,190.435043 
	C370.169281,189.947250 368.802582,188.933212 367.553162,189.061508 
	C361.725861,189.659821 355.864502,190.259262 350.144226,191.468216 
	C345.016510,192.551926 340.056793,194.430618 334.655334,196.016495 
	C329.204956,198.696884 324.122223,201.319382 318.688232,204.002014 
	C315.222046,205.972763 312.107056,207.883377 308.644867,209.886398 
	C303.866211,213.900803 299.434753,217.822800 294.656189,221.832092 
	C291.583344,224.854492 288.857574,227.789581 286.082214,230.243729 
	C285.998169,229.124207 285.963715,228.485611 285.929291,227.847031 
z"/>
<path fill="#A2A3C9" opacity="1.000000" stroke="none" 
	d="
M247.994431,217.001266 
	C250.407394,219.343628 252.820358,221.685974 255.088898,224.551666 
	C254.455109,225.462814 253.481705,225.990402 253.547409,226.217896 
	C255.071396,231.495132 252.284729,236.032181 250.734985,240.893219 
	C244.892273,239.668625 239.454987,238.392166 234.009399,236.733521 
	C233.475204,234.554871 232.949280,232.758392 232.288483,230.501236 
	C233.293228,230.501236 234.684143,230.646530 234.722641,230.479675 
	C235.411743,227.494141 239.385941,225.911972 237.726730,221.732285 
	C236.424332,218.451447 236.530838,214.611328 236.352783,211.082764 
	C240.148041,213.128555 243.601959,215.111237 247.291885,217.084686 
	C247.527893,217.075424 247.994431,217.001266 247.994431,217.001266 
z"/>
<path fill="#AECBE9" opacity="1.000000" stroke="none" 
	d="
M243.886673,210.023422 
	C236.449875,207.165024 230.694489,202.238678 226.576248,195.353455 
	C227.597031,195.019836 228.299713,195.022797 229.148254,195.336411 
	C231.918503,199.521988 233.924866,199.440445 237.323563,196.174362 
	C239.426956,194.153015 242.072739,191.983185 244.780212,191.460342 
	C249.565140,190.536331 251.801392,188.478363 251.516541,183.727509 
	C253.890182,187.238586 255.936157,190.623154 257.731842,194.283875 
	C256.110443,197.990356 253.353958,201.561859 253.685822,204.818695 
	C254.212067,209.983383 251.411133,209.667206 248.339020,209.938034 
	C246.863846,210.068069 245.371338,210.001144 243.886673,210.023422 
z"/>
<path fill="#9596C1" opacity="1.000000" stroke="none" 
	d="
M268.190552,210.005508 
	C268.162476,208.304367 268.134369,206.603241 268.524139,204.383316 
	C269.955597,201.566895 270.969177,199.269257 272.225586,197.169571 
	C275.544128,200.335236 276.510681,196.901031 277.660065,195.390747 
	C280.471252,191.696823 282.947571,187.748077 285.558655,183.901886 
	C286.214142,184.111664 286.869598,184.321426 287.525085,184.531204 
	C287.525085,187.656677 287.472900,190.783401 287.547241,193.907104 
	C287.584015,195.452576 287.853851,196.992493 288.018219,198.534912 
	C289.859833,198.244461 291.734497,198.082245 293.531403,197.618500 
	C294.731384,197.308807 295.820648,196.570038 297.170654,196.242218 
	C297.957733,196.637970 298.533630,196.814758 299.079773,197.362930 
	C297.945740,200.468399 296.841461,203.202484 295.398102,205.973404 
	C293.981934,207.050842 292.904816,208.091461 291.534729,209.103683 
	C290.849457,209.067276 290.457214,209.059296 289.748962,208.895706 
	C285.267059,206.991013 281.164459,205.051575 276.889496,203.630432 
	C275.857269,203.287277 274.064911,204.418503 272.958954,205.296188 
	C271.219330,206.676758 269.765442,208.417358 268.190552,210.005508 
z"/>
<path fill="#6A6A88" opacity="1.000000" stroke="none" 
	d="
M224.064957,234.833847 
	C218.514038,232.273849 212.851776,229.927811 207.435669,227.108826 
	C196.536530,221.436035 188.114975,212.700378 180.250320,203.559341 
	C177.733093,200.633591 176.967712,196.200623 175.396851,192.447800 
	C183.201080,188.112442 189.838531,191.342636 196.195023,192.148300 
	C207.646057,193.599670 218.161789,198.462601 228.675690,204.253296 
	C228.982208,204.882446 228.975479,205.067810 228.573639,205.202377 
	C224.787994,204.101761 221.397476,203.051941 217.686295,201.846130 
	C214.578140,200.768799 211.790649,199.847458 208.816772,198.622192 
	C201.092178,196.715927 193.596237,194.839981 185.991943,193.665421 
	C183.461563,193.274567 182.989838,195.748108 183.195129,198.308929 
	C183.835815,206.301239 189.396164,210.613556 195.194031,215.261658 
	C199.200226,218.054108 203.024063,220.555267 207.085587,223.305405 
	C211.813660,226.099472 216.304047,228.644577 220.999542,231.434113 
	C222.158096,232.730301 223.111526,233.782074 224.064957,234.833847 
z"/>
<path fill="#9596C1" opacity="1.000000" stroke="none" 
	d="
M224.390076,234.998001 
	C223.111526,233.782074 222.158096,232.730301 221.189713,231.104187 
	C222.438461,227.892975 224.333328,225.369492 224.831635,222.595154 
	C225.805634,217.172516 226.270782,211.721268 231.327225,208.007034 
	C233.108963,209.051544 234.560196,210.035614 236.011444,211.019669 
	C236.530838,214.611328 236.424332,218.451447 237.726730,221.732285 
	C239.385941,225.911972 235.411743,227.494141 234.722641,230.479675 
	C234.684143,230.646530 233.293228,230.501236 232.288483,230.501236 
	C232.949280,232.758392 233.475204,234.554871 234.009308,237.074799 
	C233.990204,238.255035 233.962921,238.711823 233.935638,239.168610 
	C230.862152,237.833115 227.788681,236.497635 224.390076,234.998001 
z"/>
<path fill="#9BBBDF" opacity="1.000000" stroke="none" 
	d="
M229.002411,195.025757 
	C228.299713,195.022797 227.597031,195.019836 226.542999,195.015900 
	C225.187714,193.906464 224.183762,192.798004 223.085541,190.999619 
	C222.307205,187.867096 221.623138,185.424469 221.337341,182.983673 
	C226.053391,183.323792 226.206223,179.913849 226.966888,177.111465 
	C227.926971,173.574417 228.892197,170.852768 233.768814,172.904922 
	C235.697479,173.716522 238.569534,172.286301 241.321304,171.962494 
	C242.762314,173.005341 243.894073,173.962555 244.959320,175.274460 
	C241.564011,178.968521 240.047134,183.659103 235.118332,186.023300 
	C232.290848,187.379562 230.990341,191.919220 229.002411,195.025757 
z"/>
<path fill="#849FB0" opacity="1.000000" stroke="none" 
	d="
M220.939072,182.981857 
	C221.623138,185.424469 222.307205,187.867096 222.965057,190.703522 
	C221.269409,188.571243 219.079895,186.242325 218.032776,183.480301 
	C215.406113,176.551727 212.778091,169.546234 211.124756,162.347839 
	C209.466003,155.125977 213.472824,153.173950 222.186493,156.646317 
	C238.471054,163.135635 250.391113,174.428162 258.412659,189.920197 
	C259.144470,191.333588 259.535614,192.923370 259.694733,194.686066 
	C258.863678,194.629837 258.422913,194.318787 257.982117,194.007721 
	C255.936157,190.623154 253.890182,187.238586 251.519592,183.595367 
	C251.194946,183.336716 251.130737,183.072296 251.067108,182.744293 
	C250.356613,181.537827 249.709717,180.659348 248.919006,179.498688 
	C247.525391,177.784256 246.275604,176.352005 245.025818,174.919754 
	C243.894073,173.962555 242.762314,173.005341 241.098206,171.724380 
	C234.653610,167.334045 228.860626,163.072922 222.751328,159.327759 
	C221.071747,158.298126 217.602036,157.849442 216.462646,158.850891 
	C214.927017,160.200623 213.790344,163.517776 214.347702,165.453537 
	C216.069397,171.433197 218.676071,177.158051 220.939072,182.981857 
z"/>
<path fill="#606363" opacity="1.000000" stroke="none" 
	d="
M156.939606,317.324219 
	C152.626221,310.081787 154.438919,303.104126 157.986877,296.287201 
	C159.697647,293.000122 167.088913,289.909851 171.046860,291.028625 
	C177.655319,292.896637 183.542786,295.990326 183.901520,303.918152 
	C184.077835,307.814697 183.119064,311.762665 182.314194,315.551941 
	C181.402084,314.254517 180.849747,313.092468 180.232666,311.497314 
	C180.117096,309.235046 180.257935,307.375916 179.977692,305.582581 
	C179.278564,301.108673 177.349609,297.760437 172.746140,295.778992 
	C168.565048,293.979370 165.758591,295.774567 162.852310,297.917542 
	C158.464081,301.153259 157.590485,309.099335 160.395248,315.067993 
	C158.977295,315.840790 157.958450,316.582520 156.939606,317.324219 
z"/>
<path fill="#7C7B98" opacity="1.000000" stroke="none" 
	d="
M271.982758,196.971603 
	C270.969177,199.269257 269.955597,201.566895 268.612671,203.966034 
	C270.451263,196.916962 271.804688,189.373932 275.009521,182.723007 
	C278.413818,175.658142 283.088867,169.036331 288.121277,162.978958 
	C292.134827,158.147934 297.304993,154.162918 302.417328,150.425552 
	C304.077362,149.211975 307.177612,149.968475 309.774567,149.814636 
	C310.207458,152.090286 310.592834,154.116226 310.606201,156.566833 
	C309.822021,156.990479 309.409821,156.989456 308.759644,156.753677 
	C307.397003,153.737106 305.245178,152.235626 302.700195,154.054932 
	C298.481354,157.070816 294.383850,160.391037 290.826508,164.143585 
	C288.916626,166.158279 288.238647,169.340790 286.943878,172.345673 
	C286.187286,173.790512 285.733856,175.220367 284.757172,175.928177 
	C277.522888,181.170914 275.557800,189.550049 271.982758,196.971603 
z"/>
<path fill="#768FA5" opacity="1.000000" stroke="none" 
	d="
M313.113434,185.024155 
	C311.202728,181.163452 313.876038,178.147171 315.847321,175.899841 
	C321.370941,169.602631 327.554352,163.931732 335.994019,161.496048 
	C341.523376,159.900284 342.577301,160.819733 343.037445,166.416901 
	C343.940796,177.404938 336.686554,183.756607 329.969971,190.444305 
	C329.333923,191.077606 327.797729,190.806900 326.312256,190.550140 
	C327.295837,188.762451 328.646606,187.380508 330.310242,185.871246 
	C335.128113,181.391663 339.690765,177.069595 338.927002,169.525528 
	C338.962799,167.523773 338.962799,165.938324 338.962799,164.236969 
	C331.161072,165.730728 327.229462,168.032684 320.647827,174.704102 
	C317.928711,178.259338 315.521088,181.641754 313.113434,185.024155 
z"/>
<path fill="#52555B" opacity="1.000000" stroke="none" 
	d="
M299.193848,284.295624 
	C299.193848,288.602509 299.193848,292.909393 299.193848,297.884552 
	C302.729553,297.606049 306.180786,297.150330 309.631683,297.152771 
	C311.015961,297.153748 312.399536,298.162018 313.783417,298.711792 
	C312.577972,299.458557 311.436218,300.691101 310.154938,300.859009 
	C306.627625,301.321350 303.041870,301.337616 299.020966,301.555145 
	C299.020966,307.306183 298.922089,313.092133 299.060974,318.872406 
	C299.134827,321.946014 297.719116,322.784515 295.494263,322.760376 
	C294.949615,310.632080 294.396637,298.977783 293.931610,287.319946 
	C293.853027,285.349976 294.153412,283.364899 294.639954,281.596436 
	C295.001190,285.577545 295.001190,289.349060 295.001190,293.120544 
	C295.561829,293.109772 296.122498,293.098969 296.683136,293.088196 
	C296.683136,291.242615 296.374786,289.323944 296.788757,287.576447 
	C297.076660,286.361115 298.356934,285.380890 299.193848,284.295624 
z"/>
<path fill="#A2A3C9" opacity="1.000000" stroke="none" 
	d="
M268.114929,210.381012 
	C269.765442,208.417358 271.219330,206.676758 272.958954,205.296188 
	C274.064911,204.418503 275.857269,203.287277 276.889496,203.630432 
	C281.164459,205.051575 285.267059,206.991013 289.587646,209.199799 
	C288.787109,211.804642 287.831909,213.949799 286.765381,216.113617 
	C286.654053,216.132248 286.442535,216.053452 286.032074,216.039490 
	C284.421875,216.388321 283.222137,216.751099 281.669098,217.103729 
	C279.496490,217.419220 277.677155,217.744873 275.942383,217.732819 
	C276.712433,215.862427 277.397919,214.329742 278.083405,212.797073 
	C277.626862,212.448029 277.170349,212.098984 276.713806,211.749954 
	C275.329681,213.320343 273.945526,214.890747 272.365234,216.683655 
	C271.160583,216.511719 269.554871,216.282532 267.949158,216.053345 
	C267.979218,214.287735 268.009277,212.522141 268.114929,210.381012 
z"/>
<path fill="#C8E1F4" opacity="1.000000" stroke="none" 
	d="
M313.000122,185.350662 
	C315.521088,181.641754 317.928711,178.259338 320.648407,175.085571 
	C320.815765,176.554825 320.671112,177.815445 320.517120,179.157471 
	C321.940521,179.157471 323.281158,178.944611 324.522797,179.204514 
	C326.691895,179.658554 328.800110,180.403351 330.795563,181.363281 
	C330.437317,183.133041 330.217346,184.565811 329.997345,185.998581 
	C328.646606,187.380508 327.295837,188.762451 325.924774,190.474854 
	C322.513336,192.796097 319.067993,194.406662 315.035217,192.622818 
	C311.638092,191.120117 310.526947,188.944061 313.000122,185.350662 
z"/>
<path fill="#4B4D4F" opacity="1.000000" stroke="none" 
	d="
M206.053833,294.789154 
	C196.417038,295.818481 195.415710,303.455688 196.239471,310.596161 
	C196.762161,315.126862 199.647034,319.146576 204.863770,319.220520 
	C209.090271,319.280487 213.333115,318.187531 219.127991,317.391815 
	C217.366241,319.329224 216.270294,321.648926 214.959839,321.777222 
	C210.021988,322.260590 204.842392,322.862122 200.072617,321.875610 
	C192.705276,320.351898 192.143448,313.574707 192.184158,307.707062 
	C192.247040,298.645660 194.753510,292.912140 205.655289,292.480835 
	C206.053131,293.515198 206.053482,294.152161 206.053833,294.789154 
z"/>
<path fill="#4B4D4F" opacity="1.000000" stroke="none" 
	d="
M399.036255,304.161041 
	C397.998932,308.447906 397.219788,312.822021 395.813446,316.984192 
	C395.127655,319.013794 393.585602,321.144806 391.818939,322.260468 
	C390.877167,322.855194 387.593964,321.825470 387.148163,320.774017 
	C384.785187,315.200531 382.975555,309.391510 380.998352,303.655762 
	C379.998444,300.755066 379.049500,297.836823 378.077515,294.926514 
	C378.407166,294.589966 378.736816,294.253418 379.066467,293.916870 
	C380.140747,294.857941 381.716614,295.593109 382.202209,296.775879 
	C384.267578,301.806641 386.016754,306.967560 387.866730,312.086212 
	C388.520447,313.894989 389.132446,315.718811 389.763489,317.535736 
	C390.305389,317.616791 390.847321,317.697815 391.389221,317.778839 
	C393.435059,311.978455 395.480865,306.178040 398.159363,300.225220 
	C399.556946,300.401428 400.321808,300.730072 401.086700,301.058716 
	C401.086700,301.058716 401.027069,301.533386 400.668091,301.808289 
	C399.884796,302.775818 399.460510,303.468414 399.036255,304.161041 
z"/>
<path fill="#52555B" opacity="1.000000" stroke="none" 
	d="
M325.931335,304.997375 
	C325.965881,297.867767 325.911407,291.235199 326.106354,284.609955 
	C326.141235,283.424042 327.207214,282.268433 327.797119,281.098846 
	C328.506622,282.293243 329.814972,283.478851 329.832672,284.683411 
	C330.003143,296.283752 330.010559,307.887848 329.885040,319.488953 
	C329.872955,320.608002 328.650574,321.713989 327.990051,322.826050 
	C327.288666,321.690887 326.038177,320.581940 325.982513,319.415955 
	C325.761475,314.785950 325.913605,310.138153 325.931335,304.997375 
z"/>
<path fill="#606363" opacity="1.000000" stroke="none" 
	d="
M275.999207,307.938110 
	C270.636871,310.298676 266.257294,307.386536 262.985718,304.156372 
	C261.387878,302.578796 261.356201,297.833008 262.535736,295.486389 
	C263.631439,293.306519 267.167969,291.496002 269.830933,291.171143 
	C273.439392,290.730927 277.332794,291.524536 280.904877,292.510284 
	C282.089600,292.837280 282.659515,295.391998 283.510529,296.928192 
	C282.235596,296.923676 280.923950,297.111084 279.693237,296.875519 
	C276.977692,296.355774 274.278076,295.067383 271.620941,295.186340 
	C270.038635,295.257202 267.320404,297.392944 267.310181,298.618774 
	C267.295288,300.394165 269.001251,302.466339 270.480255,303.882202 
	C271.656586,305.008331 273.592468,305.341034 275.565796,306.396484 
	C275.960052,307.157349 275.979614,307.547729 275.999207,307.938110 
z"/>
<path fill="#606363" opacity="1.000000" stroke="none" 
	d="
M246.874939,315.846771 
	C247.252899,313.446960 247.784943,311.059448 247.977066,308.644836 
	C248.389923,303.456177 248.627609,298.253571 248.963379,292.613739 
	C251.824509,290.758118 253.886826,292.289948 253.902344,295.495758 
	C253.940674,303.408661 253.496933,311.331268 252.998917,319.234344 
	C252.872803,321.235748 251.696762,322.712158 249.246613,321.017639 
	C248.641327,320.599030 247.550415,320.882660 246.374130,320.577148 
	C246.335327,318.822815 246.605133,317.334778 246.874939,315.846771 
z"/>
<path fill="#849FB0" opacity="1.000000" stroke="none" 
	d="
M207.969727,185.998764 
	C206.898804,189.440231 204.464233,188.479782 201.937759,188.093781 
	C193.445663,186.796326 187.987000,182.124313 185.379105,173.976440 
	C184.497498,171.222000 185.313858,169.464050 188.257690,170.032547 
	C194.492096,171.236526 200.766617,172.496552 206.754547,174.529327 
	C208.267807,175.043076 208.763931,178.552948 209.120972,180.685852 
	C207.053909,178.901703 205.593369,177.117752 203.719513,175.232254 
	C199.549301,174.384354 195.792404,173.637985 191.773010,172.694763 
	C190.789337,173.449234 189.271042,174.969727 189.477432,175.258774 
	C190.739349,177.026169 192.392456,178.514252 194.109680,180.371964 
	C196.801498,182.147003 199.298828,183.645508 202.113586,185.374084 
	C204.277267,185.735703 206.123505,185.867233 207.969727,185.998764 
z"/>
<path fill="#606363" opacity="1.000000" stroke="none" 
	d="
M350.027435,292.058105 
	C350.505127,291.764221 350.982788,291.470367 351.908813,291.269104 
	C352.903534,291.244629 353.449921,291.127563 353.996338,291.010498 
	C366.006226,290.872406 372.467346,298.174896 371.009064,310.218872 
	C370.871124,311.357758 370.837585,312.509247 370.174866,313.772003 
	C368.774536,313.259125 367.954926,312.629150 367.142029,311.560303 
	C367.118225,309.637817 367.178253,308.145782 367.042236,306.671906 
	C366.316315,298.806793 359.067413,293.619904 351.992798,295.553833 
	C351.323486,294.172485 350.675446,293.115295 350.027435,292.058105 
z"/>
<path fill="#444645" opacity="1.000000" stroke="none" 
	d="
M367.135315,311.999176 
	C367.954926,312.629150 368.774536,313.259125 369.875031,314.026672 
	C367.479645,317.985199 364.690674,321.534607 359.791382,322.857544 
	C354.451599,324.299408 347.041382,322.514404 344.651215,317.648010 
	C342.706909,313.689240 342.436127,308.908539 342.070038,304.352295 
	C343.548523,306.112762 344.380188,308.013214 345.168518,309.956787 
	C345.125183,309.999939 345.022125,309.934082 345.121277,310.135162 
	C345.381927,310.597565 345.599854,310.797302 345.910614,311.312378 
	C346.691986,316.812592 350.141083,319.943298 354.763672,320.243530 
	C357.713348,320.435120 361.014130,318.298004 363.804901,316.618866 
	C365.300232,315.719177 366.049438,313.579376 367.135315,311.999176 
z"/>
<path fill="#6A6A88" opacity="1.000000" stroke="none" 
	d="
M308.997589,156.988449 
	C309.409821,156.989456 309.822021,156.990479 310.543304,156.981918 
	C310.897949,160.684967 310.943542,164.397583 310.598328,168.664917 
	C310.120087,170.806946 310.032684,172.394302 309.945251,173.981644 
	C308.283997,184.784546 304.378937,194.794861 298.758057,204.726044 
	C297.961945,205.530640 297.622192,205.969437 297.282471,206.408234 
	C297.282471,206.408234 297.398560,206.451889 296.985962,206.320374 
	C296.294617,206.104767 296.015869,206.020660 295.737183,205.936584 
	C296.841461,203.202484 297.945740,200.468399 299.370300,197.177094 
	C305.725861,184.098190 308.936646,170.913162 308.997589,156.988449 
z"/>
<path fill="#52555B" opacity="1.000000" stroke="none" 
	d="
M129.267456,289.952942 
	C129.241302,289.529053 129.215149,289.105164 129.467712,288.289001 
	C129.573166,287.250305 129.399902,286.603912 129.226624,285.957489 
	C129.021973,283.565491 128.817337,281.173462 128.648560,279.200684 
	C134.344849,278.909790 139.841858,278.589081 145.343155,278.381714 
	C146.449478,278.340027 147.676987,278.508789 148.659470,278.977234 
	C149.787949,279.515259 150.706055,280.494537 151.715530,281.282166 
	C150.632370,281.823151 149.579987,282.741394 148.460129,282.832764 
	C145.378555,283.084137 142.249283,283.226654 139.174606,282.975220 
	C134.544128,282.596619 132.174713,284.056671 132.983261,289.082336 
	C133.190262,290.368958 132.965530,291.725067 132.573044,293.406128 
	C131.227112,292.492981 130.247284,291.222961 129.267456,289.952942 
z"/>
<path fill="#444645" opacity="1.000000" stroke="none" 
	d="
M276.167786,308.242645 
	C275.979614,307.547729 275.960052,307.157349 275.933594,306.473846 
	C281.894623,306.852325 283.843719,308.917358 283.868988,314.595490 
	C283.894501,320.331146 281.997162,322.054474 276.029083,323.148804 
	C271.700836,323.942474 267.841736,323.402100 264.401215,320.867706 
	C263.227112,320.002808 262.691345,318.271332 261.612518,316.529999 
	C265.860870,317.935852 269.194122,319.931488 272.478912,319.854675 
	C275.310150,319.788544 279.273682,318.063416 280.604218,315.811707 
	C282.528137,312.555786 279.099640,310.261078 276.167786,308.242645 
z"/>
<path fill="#4B4D4F" opacity="1.000000" stroke="none" 
	d="
M246.579025,316.029175 
	C246.605133,317.334778 246.335327,318.822815 246.042175,320.621246 
	C242.994308,321.947876 240.011200,323.648560 236.936462,323.834595 
	C230.952148,324.196594 228.172531,320.723145 228.159378,313.158295 
	C228.318451,311.744659 228.195160,310.889893 228.071869,310.035126 
	C228.054657,308.629578 228.037430,307.224060 228.452591,305.407349 
	C229.878784,304.991791 230.872604,304.987396 231.866425,304.983032 
	C232.523911,310.237183 233.181412,315.491394 234.043488,322.380280 
	C239.196121,319.783417 242.739624,317.997528 246.579025,316.029175 
z"/>
<path fill="#7C7B98" opacity="1.000000" stroke="none" 
	d="
M273.172058,140.899384 
	C279.115234,147.564575 279.865234,155.565155 278.561951,163.831818 
	C277.977539,167.538757 276.452820,171.153030 274.927948,174.621719 
	C274.479431,175.642014 272.568298,176.019348 271.357666,176.080505 
	C272.602753,171.305527 273.817657,167.141388 275.053680,162.734573 
	C275.074799,162.491898 275.089294,162.004333 275.303223,161.731659 
	C275.675415,160.312256 275.833649,159.165543 275.997009,157.593445 
	C274.680084,152.154449 273.358063,147.140823 272.189941,141.891449 
	C272.619904,141.403595 272.895996,141.151489 273.172058,140.899384 
z"/>
<path fill="#C8E1F4" opacity="1.000000" stroke="none" 
	d="
M257.731842,194.283875 
	C258.422913,194.318787 258.863678,194.629837 259.580475,194.996445 
	C260.041382,198.724213 261.370026,202.830795 260.174469,205.978729 
	C257.640106,212.651932 252.260986,213.850632 244.050537,210.394775 
	C245.371338,210.001144 246.863846,210.068069 248.339020,209.938034 
	C251.411133,209.667206 254.212067,209.983383 253.685822,204.818695 
	C253.353958,201.561859 256.110443,197.990356 257.731842,194.283875 
z"/>
<path fill="#4B4D4F" opacity="1.000000" stroke="none" 
	d="
M414.004211,317.986267 
	C416.606079,312.456573 419.236145,306.939880 421.796478,301.390991 
	C422.875153,299.053223 423.806549,296.647461 425.951630,294.390991 
	C426.251648,295.341064 427.043274,296.467682 426.775299,297.213745 
	C424.214783,304.342651 421.466187,311.403778 418.790405,318.491516 
	C417.512695,321.875916 415.484680,322.847168 412.441681,320.156464 
	C413.000793,319.153961 413.502502,318.570099 414.004211,317.986267 
z"/>
<path fill="#444645" opacity="1.000000" stroke="none" 
	d="
M129.184357,290.418732 
	C130.247284,291.222961 131.227112,292.492981 132.511536,293.852539 
	C132.413620,302.597107 132.011093,311.252106 131.608566,319.907135 
	C130.772797,319.869537 129.937012,319.831970 129.101242,319.794373 
	C129.101242,310.157745 129.101242,300.521149 129.184357,290.418732 
z"/>
<path fill="#6A6A88" opacity="1.000000" stroke="none" 
	d="
M273.108887,140.541595 
	C272.895996,141.151489 272.619904,141.403595 271.939087,141.833466 
	C271.364990,141.987030 271.195648,141.962845 270.969025,141.635162 
	C270.264404,140.579834 269.617126,139.828018 268.750763,138.843567 
	C267.709442,138.464325 266.887146,138.317703 265.759399,138.297516 
	C262.665192,143.623016 259.876465,148.822067 256.835815,154.324341 
	C256.388062,157.076355 256.192291,159.525162 255.938232,162.314728 
	C255.595840,163.769104 255.311722,164.882706 254.714798,165.994781 
	C253.985016,166.001190 253.568024,166.009079 253.151047,166.016968 
	C252.952698,156.102097 254.624130,146.844498 261.869537,139.307922 
	C266.307709,134.691437 268.653900,134.768875 273.108887,140.541595 
z"/>
<path fill="#444645" opacity="1.000000" stroke="none" 
	d="
M157.117920,317.603210 
	C157.958450,316.582520 158.977295,315.840790 160.568542,315.316986 
	C163.296249,317.031464 165.281708,319.395447 167.639633,319.857178 
	C173.972885,321.097321 177.749573,317.266144 180.297409,311.930420 
	C180.849747,313.092468 181.402084,314.254517 182.004715,315.778931 
	C182.055008,316.141266 181.999466,316.059937 181.815521,316.156433 
	C181.421432,316.519348 181.211304,316.785767 181.001160,317.052185 
	C178.270355,322.545105 171.530807,324.924011 164.968994,322.336670 
	C162.248871,321.264069 159.844315,319.391113 157.117920,317.603210 
z"/>
<path fill="#4B4D4F" opacity="1.000000" stroke="none" 
	d="
M299.575226,284.149597 
	C298.356934,285.380890 297.076660,286.361115 296.788757,287.576447 
	C296.374786,289.323944 296.683136,291.242615 296.683136,293.088196 
	C296.122498,293.098969 295.561829,293.109772 295.001190,293.120544 
	C295.001190,289.349060 295.001190,285.577545 294.988953,281.332458 
	C299.192322,280.552979 303.406464,280.038147 307.623901,280.010132 
	C310.768524,279.989227 313.917328,280.597717 317.443268,280.965485 
	C316.401642,284.998138 313.240997,283.848297 310.547516,283.844177 
	C307.017303,283.838806 303.486938,283.945221 299.575226,284.149597 
z"/>
<path fill="#C8E1F4" opacity="1.000000" stroke="none" 
	d="
M251.140381,240.841324 
	C252.284729,236.032181 255.071396,231.495132 253.547409,226.217896 
	C253.481705,225.990402 254.455109,225.462814 255.245163,224.852417 
	C255.771545,224.869125 256.028229,225.068497 256.223053,225.682037 
	C257.741516,228.426788 259.352844,230.717453 260.964172,233.008118 
	C260.631927,234.402893 260.299652,235.797684 259.356750,237.439331 
	C256.210846,238.737930 253.675613,239.789627 251.140381,240.841324 
z"/>
<path fill="#C8E1F4" opacity="1.000000" stroke="none" 
	d="
M286.131805,230.724670 
	C288.857574,227.789581 291.583344,224.854492 294.597931,222.216675 
	C293.186584,227.038406 291.486420,231.562851 289.806335,236.033951 
	C293.235260,237.287949 295.663727,238.176086 297.710266,239.223572 
	C293.897339,239.637482 290.466400,239.891998 286.709473,240.127747 
	C285.948914,240.096390 285.514282,240.083801 285.079681,240.071213 
	C285.040955,239.892456 285.002197,239.713715 285.106171,239.072632 
	C286.376129,236.075012 289.913239,233.809555 286.131805,230.724670 
z"/>
<path fill="#444645" opacity="1.000000" stroke="none" 
	d="
M413.851044,317.652893 
	C413.502502,318.570099 413.000793,319.153961 412.238159,319.872559 
	C409.952942,314.653473 407.926422,309.300446 405.906036,303.945099 
	C405.452942,302.744141 405.021362,301.535126 404.300781,299.749481 
	C404.300110,297.797272 404.578583,296.425415 404.857056,295.053528 
	C407.202240,300.955170 409.547913,306.856598 411.892395,312.758514 
	C412.496063,314.278137 413.096130,315.799164 413.851044,317.652893 
z"/>
<path fill="#878B9D" opacity="1.000000" stroke="none" 
	d="
M250.734985,240.893219 
	C253.675613,239.789627 256.210846,238.737930 259.095398,237.719330 
	C258.914490,242.304550 255.433228,244.912750 250.444931,243.906464 
	C245.016327,242.811340 239.689590,241.211334 234.127045,239.500031 
	C233.962921,238.711823 233.990204,238.255035 234.017593,237.456970 
	C239.454987,238.392166 244.892273,239.668625 250.734985,240.893219 
z"/>
<path fill="#A2A3C9" opacity="1.000000" stroke="none" 
	d="
M275.032593,162.977249 
	C273.817657,167.141388 272.602753,171.305527 271.184296,175.765640 
	C269.965790,176.051819 268.950867,176.042023 267.240753,176.086456 
	C266.335022,176.123886 266.124451,176.107071 265.941101,175.685165 
	C267.036896,173.548218 268.105560,171.816376 269.441589,169.651199 
	C268.796234,169.511047 267.072998,169.136765 265.097504,168.707703 
	C265.467773,167.477036 265.832062,166.266190 266.126099,165.288849 
	C268.341522,166.183716 270.335480,166.989136 272.307007,167.785492 
	C273.426392,165.810776 274.229492,164.394012 275.032593,162.977249 
z"/>
<path fill="#7C7B98" opacity="1.000000" stroke="none" 
	d="
M265.913910,176.090256 
	C266.124451,176.107071 266.335022,176.123886 266.862183,176.128113 
	C264.932007,182.325974 264.113159,182.523682 259.645599,178.095352 
	C256.430237,174.908203 252.884079,171.944763 253.092529,166.408752 
	C253.568024,166.009079 253.985016,166.001190 254.944244,166.254852 
	C256.770844,172.094559 259.546326,176.048599 265.913910,176.090256 
z"/>
<path fill="#52555B" opacity="1.000000" stroke="none" 
	d="
M345.211853,309.913666 
	C344.380188,308.013214 343.548523,306.112762 342.373413,304.109344 
	C341.265015,298.085510 344.592377,294.712128 349.692841,292.146179 
	C350.675446,293.115295 351.323486,294.172485 351.684845,295.759399 
	C345.302368,298.999115 345.510406,304.571411 345.211853,309.913666 
z"/>
<path fill="#C8E1F4" opacity="1.000000" stroke="none" 
	d="
M275.857849,218.070526 
	C277.677155,217.744873 279.496490,217.419220 281.811249,217.300049 
	C282.530365,217.756119 282.802155,217.931000 283.010132,218.360291 
	C281.691284,219.894852 280.480072,221.096054 279.278595,222.306946 
	C278.138947,223.455597 277.009491,224.614380 275.875580,225.768692 
	C273.652832,225.076920 271.430084,224.385147 269.533447,223.268738 
	C271.858978,221.252899 273.858398,219.661697 275.857849,218.070526 
M275.515747,220.424133 
	C275.515747,220.424133 275.552795,220.498672 275.515747,220.424133 
z"/>
<path fill="#A6C2E3" opacity="1.000000" stroke="none" 
	d="
M275.942383,217.732803 
	C273.858398,219.661697 271.858978,221.252899 269.510132,222.904633 
	C268.709717,220.882446 268.258728,218.799683 267.878418,216.385132 
	C269.554871,216.282532 271.160583,216.511719 272.365234,216.683655 
	C273.945526,214.890747 275.329681,213.320343 276.713806,211.749954 
	C277.170349,212.098984 277.626862,212.448029 278.083405,212.797073 
	C277.397919,214.329742 276.712433,215.862427 275.942383,217.732803 
z"/>
<path fill="#878B9D" opacity="1.000000" stroke="none" 
	d="
M276.263153,225.833130 
	C277.009491,224.614380 278.138947,223.455597 279.278595,222.306946 
	C280.480072,221.096054 281.691284,219.894852 283.362701,218.394699 
	C284.698944,217.417816 285.570740,216.735641 286.442535,216.053452 
	C286.442535,216.053452 286.654053,216.132248 287.061401,215.983078 
	C288.286133,215.167206 289.103546,214.500504 290.081787,214.072342 
	C290.752960,214.545395 291.263306,214.779907 291.773651,215.014435 
	C287.965515,220.355270 283.352234,224.577286 276.263153,225.833130 
z"/>
<path fill="#52555B" opacity="1.000000" stroke="none" 
	d="
M231.913086,304.525757 
	C230.872604,304.987396 229.878784,304.991791 228.512573,304.989319 
	C228.140167,300.877380 228.140167,296.772247 228.140167,292.136017 
	C230.312988,291.427948 232.026001,292.149872 232.006073,295.614532 
	C231.989868,298.432526 231.975128,301.250519 231.913086,304.525757 
z"/>
<path fill="#A2A3C9" opacity="1.000000" stroke="none" 
	d="
M287.035461,240.146515 
	C290.466400,239.891998 293.897339,239.637482 298.102600,239.230133 
	C299.932373,239.097351 300.987854,239.117355 302.043304,239.137375 
	C302.282043,239.562897 302.520813,239.988419 302.853210,240.639252 
	C297.770996,241.515366 292.595123,242.166183 287.210541,242.139587 
	C287.013000,241.023636 287.024231,240.585083 287.035461,240.146515 
z"/>
<path fill="#606363" opacity="1.000000" stroke="none" 
	d="
M206.459625,294.843628 
	C206.053482,294.152161 206.053131,293.515198 206.056427,292.559998 
	C209.953171,292.508270 213.846298,292.774689 217.739410,293.041138 
	C217.866333,293.796021 217.993256,294.550934 218.120193,295.305847 
	C216.401123,295.760254 214.656830,296.653625 212.969437,296.556732 
	C210.909805,296.438416 208.897949,295.488403 206.459625,294.843628 
M211.542419,293.505768 
	C211.542419,293.505768 211.484299,293.528564 211.542419,293.505768 
z"/>
<path fill="#606363" opacity="1.000000" stroke="none" 
	d="
M404.874878,294.695099 
	C404.578583,296.425415 404.300110,297.797272 403.992340,299.539459 
	C403.192200,300.197449 402.421356,300.485138 401.368591,300.915771 
	C400.321808,300.730072 399.556946,300.401428 398.482178,300.051147 
	C398.527344,297.801544 398.882446,295.573517 399.407074,292.281708 
	C401.323822,292.999725 403.108246,293.668213 404.874878,294.695099 
z"/>
<path fill="#7C7B98" opacity="1.000000" stroke="none" 
	d="
M236.352783,211.082764 
	C234.560196,210.035614 233.108963,209.051544 231.142120,207.781052 
	C230.073914,206.747467 229.521332,206.000320 228.968735,205.253159 
	C228.975479,205.067810 228.982208,204.882446 229.002808,204.419250 
	C234.923233,207.829346 240.829788,211.517303 246.890335,215.827911 
	C247.048187,216.665024 247.052032,216.879471 247.055878,217.093933 
	C243.601959,215.111237 240.148041,213.128555 236.352783,211.082764 
z"/>
<path fill="#C8E1F4" opacity="1.000000" stroke="none" 
	d="
M204.132812,175.333801 
	C205.593369,177.117752 207.053909,178.901703 208.802536,180.849426 
	C208.729080,182.424255 208.367569,183.835342 207.987885,185.622589 
	C206.123505,185.867233 204.277267,185.735703 202.297516,185.058243 
	C204.304092,182.386597 206.177109,180.195892 204.008438,176.735077 
	C204.063477,176.080261 204.098145,175.707031 204.132812,175.333801 
z"/>
<path fill="#7C7B98" opacity="1.000000" stroke="none" 
	d="
M291.910950,214.688843 
	C291.263306,214.779907 290.752960,214.545395 290.237183,213.793121 
	C290.763733,211.894287 291.295746,210.513199 291.827759,209.132111 
	C292.904816,208.091461 293.981934,207.050842 295.398071,205.973389 
	C296.015869,206.020660 296.294617,206.104767 296.971222,206.380615 
	C295.595490,209.169327 293.821869,211.766281 291.910950,214.688843 
z"/>
<path fill="#A6C2E3" opacity="1.000000" stroke="none" 
	d="
M286.082214,230.243729 
	C289.913239,233.809555 286.376129,236.075012 284.992279,238.823059 
	C283.902893,236.958130 283.070129,234.880447 282.221130,232.762207 
	C283.196777,231.279678 284.236572,229.699646 285.602844,227.983322 
	C285.963715,228.485611 285.998169,229.124207 286.082214,230.243729 
z"/>
<path fill="#444645" opacity="1.000000" stroke="none" 
	d="
M140.915390,299.991882 
	C138.631042,299.993835 136.775253,299.993835 134.919449,299.993835 
	C134.930939,299.536438 134.942429,299.079041 134.953918,298.621643 
	C138.399628,298.621643 141.845337,298.621643 145.291061,298.621643 
	C145.323593,298.930176 145.356140,299.238708 145.388672,299.547241 
	C144.040436,299.694794 142.692184,299.842346 140.915390,299.991882 
z"/>
<path fill="#878B9D" opacity="1.000000" stroke="none" 
	d="
M261.278320,232.878998 
	C259.352844,230.717453 257.741516,228.426788 256.405304,225.845383 
	C258.317780,227.953064 259.955139,230.351486 261.278320,232.878998 
z"/>
<path fill="#7C7B98" opacity="1.000000" stroke="none" 
	d="
M310.025513,173.617462 
	C310.032684,172.394302 310.120087,170.806946 310.533600,169.123810 
	C310.608398,170.436432 310.357117,171.844864 310.025513,173.617462 
z"/>
<path fill="#444645" opacity="1.000000" stroke="none" 
	d="
M129.168106,286.305054 
	C129.399902,286.603912 129.573166,287.250305 129.505096,287.972107 
	C129.212372,287.582520 129.160980,287.117554 129.168106,286.305054 
z"/>
<path fill="#A6C2E3" opacity="1.000000" stroke="none" 
	d="
M286.709473,240.127747 
	C287.024231,240.585083 287.013000,241.023636 286.969757,241.790466 
	C286.307251,241.636749 285.676788,241.154755 285.062988,240.371979 
	C285.514282,240.083801 285.948914,240.096390 286.709473,240.127747 
z"/>
<path fill="#606363" opacity="1.000000" stroke="none" 
	d="
M399.335938,304.071167 
	C399.460510,303.468414 399.884796,302.775818 400.642212,302.046082 
	C400.528778,302.666412 400.082214,303.323853 399.335938,304.071167 
z"/>
<path fill="#52555B" opacity="1.000000" stroke="none" 
	d="
M228.030060,310.403259 
	C228.195160,310.889893 228.318451,311.744659 228.225677,312.796448 
	C228.002472,312.252808 227.995361,311.512115 228.030060,310.403259 
z"/>
<path fill="#52555B" opacity="1.000000" stroke="none" 
	d="
M353.665741,290.950867 
	C353.449921,291.127563 352.903534,291.244629 352.182312,291.202881 
	C352.450073,290.993134 352.892609,290.942200 353.665741,290.950867 
z"/>
<path fill="#7C7B98" opacity="1.000000" stroke="none" 
	d="
M297.593750,206.412094 
	C297.622192,205.969437 297.961945,205.530640 298.602173,205.052948 
	C298.570099,205.481369 298.237549,205.948669 297.593750,206.412094 
z"/>
<path fill="#878B9D" opacity="1.000000" stroke="none" 
	d="
M247.291885,217.084686 
	C247.052032,216.879471 247.048187,216.665024 247.053177,216.128952 
	C247.352585,216.022217 247.643173,216.237106 247.964081,216.726624 
	C247.994431,217.001266 247.527893,217.075424 247.291885,217.084686 
z"/>
<path fill="#606363" opacity="1.000000" stroke="none" 
	d="
M181.251953,316.961212 
	C181.211304,316.785767 181.421432,316.519348 181.852936,316.124451 
	C181.883774,316.287384 181.693268,316.578796 181.251953,316.961212 
z"/>
<path fill="#8BB5DC" opacity="1.000000" stroke="none" 
	d="
M335.022980,195.958603 
	C340.056793,194.430618 345.016510,192.551926 350.144226,191.468216 
	C355.864502,190.259262 361.725861,189.659821 367.553162,189.061508 
	C368.802582,188.933212 370.169281,189.947250 371.481934,190.435043 
	C370.980347,191.782272 370.788025,193.381516 369.928131,194.436783 
	C363.242004,202.641968 356.395020,210.709671 347.497406,216.694885 
	C344.904236,218.439270 342.311707,220.184601 339.348755,221.597748 
	C338.457336,216.904633 337.983398,212.536667 337.379913,208.186707 
	C337.237335,207.158966 336.945221,205.671524 336.234863,205.280594 
	C331.448944,202.646835 331.613525,199.559387 335.022980,195.958603 
z"/>
<path fill="#9BBBDF" opacity="1.000000" stroke="none" 
	d="
M334.655334,196.016495 
	C331.613525,199.559387 331.448944,202.646835 336.234863,205.280594 
	C336.945221,205.671524 337.237335,207.158966 337.379913,208.186707 
	C337.983398,212.536667 338.457336,216.904633 339.002991,221.668152 
	C336.262482,223.703537 333.497650,225.336761 329.967468,226.988525 
	C326.134521,228.010712 323.066895,229.014343 319.868408,229.709106 
	C320.665771,226.868912 321.594025,224.337570 322.617188,221.547501 
	C320.518524,221.181412 318.622284,220.850632 316.372925,220.458267 
	C317.284180,214.814011 318.161835,209.377960 319.039490,203.941895 
	C324.122223,201.319382 329.204956,198.696884 334.655334,196.016495 
z"/>
<path fill="#AECBE9" opacity="1.000000" stroke="none" 
	d="
M319.999298,230.017975 
	C323.066895,229.014343 326.134521,228.010712 329.601990,227.004166 
	C321.647552,232.600967 312.770752,237.023056 302.438324,239.095932 
	C300.987854,239.117355 299.932373,239.097351 298.484558,239.070770 
	C295.663727,238.176086 293.235260,237.287949 289.806335,236.033951 
	C291.486420,231.562851 293.186584,227.038406 294.945007,222.129379 
	C299.434753,217.822800 303.866211,213.900803 308.573975,210.249878 
	C302.913086,216.285614 304.597778,223.275772 306.228729,229.923019 
	C307.034607,233.207321 310.345245,234.761719 313.754944,233.699112 
	C316.000671,232.999252 317.928894,231.280487 319.999298,230.017975 
z"/>
<path fill="#A6C2E3" opacity="1.000000" stroke="none" 
	d="
M319.868408,229.709106 
	C317.928894,231.280487 316.000671,232.999252 313.754944,233.699112 
	C310.345245,234.761719 307.034607,233.207321 306.228729,229.923019 
	C304.597778,223.275772 302.913086,216.285614 308.921143,210.157471 
	C312.107056,207.883377 315.222046,205.972763 318.688263,204.002014 
	C318.161835,209.377960 317.284180,214.814011 316.372925,220.458267 
	C318.622284,220.850632 320.518524,221.181412 322.617188,221.547501 
	C321.594025,224.337570 320.665771,226.868912 319.868408,229.709106 
z"/>
<path fill="#A6C2E3" opacity="1.000000" stroke="none" 
	d="
M251.130737,183.072296 
	C251.130737,183.072296 251.194946,183.336716 251.191910,183.468842 
	C251.801392,188.478363 249.565140,190.536331 244.780212,191.460342 
	C242.072739,191.983185 239.426956,194.153015 237.323563,196.174362 
	C233.924866,199.440445 231.918503,199.521988 229.148254,195.336395 
	C230.990341,191.919220 232.290848,187.379562 235.118332,186.023300 
	C240.047134,183.659103 241.564011,178.968521 244.959320,175.274460 
	C246.275604,176.352005 247.525391,177.784256 248.912567,179.872681 
	C249.743561,181.376648 250.437149,182.224472 251.130737,183.072296 
z"/>
<path fill="#797BB1" opacity="1.000000" stroke="none" 
	d="
M308.759644,156.753677 
	C308.936646,170.913162 305.725861,184.098190 299.400024,196.805710 
	C298.533630,196.814758 297.957733,196.637970 297.417511,195.976166 
	C300.695343,193.220413 301.279968,189.859833 298.616821,187.482178 
	C294.288147,183.617554 293.263184,179.948074 296.338776,174.943863 
	C296.915588,174.005325 296.528900,171.970459 295.835846,170.953140 
	C295.447723,170.383408 293.498749,170.730774 292.286896,170.903000 
	C290.510284,171.155487 288.764008,171.621384 287.004761,171.996338 
	C288.238647,169.340790 288.916626,166.158279 290.826508,164.143585 
	C294.383850,160.391037 298.481354,157.070816 302.700195,154.054932 
	C305.245178,152.235626 307.397003,153.737106 308.759644,156.753677 
z"/>
<path fill="#8888B7" opacity="1.000000" stroke="none" 
	d="
M286.943909,172.345673 
	C288.764008,171.621384 290.510284,171.155487 292.286896,170.903000 
	C293.498749,170.730774 295.447723,170.383408 295.835846,170.953140 
	C296.528900,171.970459 296.915588,174.005325 296.338776,174.943863 
	C293.263184,179.948074 294.288147,183.617554 298.616821,187.482178 
	C301.279968,189.859833 300.695343,193.220413 297.206299,195.757217 
	C295.820648,196.570038 294.731384,197.308807 293.531403,197.618500 
	C291.734497,198.082245 289.859833,198.244461 288.018219,198.534912 
	C287.853851,196.992493 287.584015,195.452576 287.547241,193.907104 
	C287.472900,190.783401 287.525085,187.656677 287.525085,184.531204 
	C286.869598,184.321426 286.214142,184.111664 285.558655,183.901886 
	C282.947571,187.748077 280.471252,191.696823 277.660065,195.390747 
	C276.510681,196.901031 275.544128,200.335236 272.225586,197.169571 
	C275.557800,189.550049 277.522888,181.170914 284.757172,175.928177 
	C285.733856,175.220367 286.187286,173.790512 286.943909,172.345673 
z"/>
<path fill="#A6C2E3" opacity="1.000000" stroke="none" 
	d="
M291.534729,209.103699 
	C291.295746,210.513199 290.763733,211.894287 290.076355,213.554596 
	C289.103546,214.500504 288.286133,215.167206 287.172729,215.964447 
	C287.831909,213.949799 288.787109,211.804642 289.903625,209.355377 
	C290.457214,209.059296 290.849457,209.067276 291.534729,209.103699 
z"/>
<path fill="#8888B7" opacity="1.000000" stroke="none" 
	d="
M228.573639,205.202377 
	C229.521332,206.000320 230.073914,206.747467 230.811615,207.720612 
	C226.270782,211.721268 225.805634,217.172516 224.831635,222.595154 
	C224.333328,225.369492 222.438461,227.892975 220.984589,230.859772 
	C216.304047,228.644577 211.813660,226.099472 207.383057,223.053955 
	C207.494370,219.497452 208.592789,215.885193 207.337906,213.523102 
	C205.691803,210.424545 206.403702,209.800919 208.942123,208.383179 
	C212.150803,206.591095 215.001724,204.158447 218.006958,202.002106 
	C221.397476,203.051941 224.787994,204.101761 228.573639,205.202377 
z"/>
<path fill="#797BB1" opacity="1.000000" stroke="none" 
	d="
M217.686279,201.846100 
	C215.001724,204.158447 212.150803,206.591095 208.942123,208.383179 
	C206.403702,209.800919 205.691803,210.424545 207.337906,213.523102 
	C208.592789,215.885193 207.494370,219.497452 207.145386,222.804993 
	C203.024063,220.555267 199.200226,218.054108 195.269470,214.943405 
	C194.931030,210.405914 194.699524,206.477966 194.413727,201.629089 
	C196.766739,201.914658 199.559036,202.193008 202.331314,202.605835 
	C205.534332,203.082794 208.856491,203.927216 209.003159,198.926132 
	C211.790649,199.847458 214.578140,200.768799 217.686279,201.846100 
z"/>
<path fill="#7477A6" opacity="1.000000" stroke="none" 
	d="
M208.816772,198.622192 
	C208.856491,203.927216 205.534332,203.082794 202.331314,202.605835 
	C199.559036,202.193008 196.766739,201.914658 194.413727,201.629089 
	C194.699524,206.477966 194.931030,210.405914 195.087112,214.652115 
	C189.396164,210.613556 183.835815,206.301239 183.195129,198.308929 
	C182.989838,195.748108 183.461563,193.274567 185.991943,193.665421 
	C193.596237,194.839981 201.092178,196.715927 208.816772,198.622192 
z"/>
<path fill="#8BB5DC" opacity="1.000000" stroke="none" 
	d="
M221.337341,182.983673 
	C218.676071,177.158051 216.069397,171.433197 214.347702,165.453537 
	C213.790344,163.517776 214.927017,160.200623 216.462646,158.850891 
	C217.602036,157.849442 221.071747,158.298126 222.751328,159.327759 
	C228.860626,163.072922 234.653610,167.334045 240.788940,171.638733 
	C238.569534,172.286301 235.697479,173.716522 233.768814,172.904922 
	C228.892197,170.852768 227.926971,173.574417 226.966888,177.111465 
	C226.206223,179.913849 226.053391,183.323792 221.337341,182.983673 
z"/>
<path fill="#AECBE9" opacity="1.000000" stroke="none" 
	d="
M251.067108,182.744293 
	C250.437149,182.224472 249.743561,181.376648 249.056396,180.154861 
	C249.709717,180.659348 250.356613,181.537827 251.067108,182.744293 
z"/>
<path fill="#000000" opacity="1.000000" stroke="none" 
	d="
M180.232666,311.497314 
	C177.749573,317.266144 173.972885,321.097321 167.639633,319.857178 
	C165.281708,319.395447 163.296249,317.031464 160.967651,315.285919 
	C157.590485,309.099335 158.464081,301.153259 162.852310,297.917542 
	C165.758591,295.774567 168.565048,293.979370 172.746140,295.778992 
	C177.349609,297.760437 179.278564,301.108673 179.977692,305.582581 
	C180.257935,307.375916 180.117096,309.235046 180.232666,311.497314 
z"/>
<path fill="#AECBE9" opacity="1.000000" stroke="none" 
	d="
M330.933838,181.026291 
	C328.800110,180.403351 326.691895,179.658554 324.522797,179.204514 
	C323.281158,178.944611 321.940521,179.157471 320.517120,179.157471 
	C320.671112,177.815445 320.815765,176.554825 320.959900,174.912735 
	C327.229462,168.032684 331.161072,165.730728 338.962799,164.236969 
	C338.962799,165.938324 338.962799,167.523773 338.604706,169.619751 
	C335.578796,172.491745 332.910980,174.853210 330.254974,177.204254 
	C330.444916,178.273682 330.689392,179.649979 330.933838,181.026291 
z"/>
<path fill="#9BBBDF" opacity="1.000000" stroke="none" 
	d="
M330.795593,181.363281 
	C330.689392,179.649979 330.444916,178.273682 330.254974,177.204254 
	C332.910980,174.853210 335.578796,172.491745 338.568909,170.036041 
	C339.690765,177.069595 335.128113,181.391663 330.310242,185.871246 
	C330.217346,184.565811 330.437317,183.133041 330.795593,181.363281 
z"/>
<path fill="#A6C2E3" opacity="1.000000" stroke="none" 
	d="
M286.032074,216.039490 
	C285.570740,216.735641 284.698944,217.417816 283.474609,218.065582 
	C282.802155,217.931000 282.530365,217.756119 282.164551,217.310211 
	C283.222137,216.751099 284.421875,216.388321 286.032074,216.039490 
z"/>
<path fill="#8BB5DC" opacity="1.000000" stroke="none" 
	d="
M193.915192,180.095413 
	C192.392456,178.514252 190.739349,177.026169 189.477432,175.258774 
	C189.271042,174.969727 190.789337,173.449234 191.902435,173.027481 
	C194.541870,175.695755 196.789368,177.834457 198.972351,180.233826 
	C197.243607,180.361450 195.579391,180.228424 193.915192,180.095413 
z"/>
<path fill="#AECBE9" opacity="1.000000" stroke="none" 
	d="
M199.036880,179.973160 
	C196.789368,177.834457 194.541870,175.695755 192.164932,173.224335 
	C195.792404,173.637985 199.549301,174.384354 203.719513,175.232254 
	C204.098145,175.707031 204.063477,176.080261 203.771332,176.985382 
	C202.021545,178.335907 200.529205,179.154526 199.036880,179.973160 
z"/>
<path fill="#9BBBDF" opacity="1.000000" stroke="none" 
	d="
M198.972351,180.233826 
	C200.529205,179.154526 202.021545,178.335907 203.750977,177.266983 
	C206.177109,180.195892 204.304092,182.386597 201.980072,184.828156 
	C199.298828,183.645508 196.801498,182.147003 194.109680,180.371964 
	C195.579391,180.228424 197.243607,180.361450 198.972351,180.233826 
z"/>
<path fill="#000000" opacity="1.000000" stroke="none" 
	d="
M345.168518,309.956787 
	C345.510406,304.571411 345.302368,298.999115 351.706116,296.083557 
	C359.067413,293.619904 366.316315,298.806793 367.042236,306.671906 
	C367.178253,308.145782 367.118225,309.637817 367.142029,311.560303 
	C366.049438,313.579376 365.300232,315.719177 363.804901,316.618866 
	C361.014130,318.298004 357.713348,320.435120 354.763672,320.243530 
	C350.141083,319.943298 346.691986,316.812592 345.879944,311.071533 
	C345.632629,310.153809 345.369049,309.980560 345.022125,309.934082 
	C345.022125,309.934082 345.125183,309.999939 345.168518,309.956787 
z"/>
<path fill="#52555B" opacity="1.000000" stroke="none" 
	d="
M345.121277,310.135162 
	C345.369049,309.980560 345.632629,310.153809 345.843567,310.694641 
	C345.599854,310.797302 345.381927,310.597565 345.121277,310.135162 
z"/>
<path fill="#9596C1" opacity="1.000000" stroke="none" 
	d="
M265.941101,175.685165 
	C259.546326,176.048599 256.770844,172.094559 255.257050,166.256348 
	C255.311722,164.882706 255.595840,163.769104 256.287720,162.316666 
	C257.797150,161.642670 258.898834,161.307510 260.223145,161.178253 
	C262.115753,160.230286 263.785675,159.076416 265.655945,157.784134 
	C265.889587,159.180283 266.111298,160.505188 266.420502,162.352997 
	C267.778229,160.352219 268.751862,158.917419 269.565765,157.718018 
	C271.581299,159.282089 273.335297,160.643219 275.089294,162.004333 
	C275.089294,162.004333 275.074799,162.491898 275.053711,162.734573 
	C274.229492,164.394012 273.426392,165.810776 272.307007,167.785492 
	C270.335480,166.989136 268.341522,166.183716 266.126099,165.288849 
	C265.832062,166.266190 265.467773,167.477036 265.097504,168.707703 
	C267.072998,169.136765 268.796234,169.511047 269.441589,169.651199 
	C268.105560,171.816376 267.036896,173.548218 265.941101,175.685165 
z"/>
<path fill="#8888B7" opacity="1.000000" stroke="none" 
	d="
M275.303223,161.731659 
	C273.335297,160.643219 271.581299,159.282089 269.565765,157.718018 
	C268.751862,158.917419 267.778229,160.352219 266.420502,162.352997 
	C266.111298,160.505188 265.889587,159.180283 265.655945,157.784134 
	C263.785675,159.076416 262.115753,160.230286 260.280884,160.810440 
	C261.743530,156.157242 263.371155,152.077759 265.374664,148.013092 
	C266.707123,148.561951 267.867249,148.904175 268.583588,149.664536 
	C271.134644,152.372406 273.534668,155.222549 275.991882,158.018814 
	C275.833649,159.165543 275.675415,160.312256 275.303223,161.731659 
z"/>
<path fill="#797BB1" opacity="1.000000" stroke="none" 
	d="
M275.997009,157.593445 
	C273.534668,155.222549 271.134644,152.372406 268.583588,149.664536 
	C267.867249,148.904175 266.707123,148.561951 265.365967,148.004730 
	C264.981415,147.981552 264.964294,147.964325 264.990356,147.558838 
	C265.365906,144.159256 265.715393,141.165161 266.064880,138.171066 
	C266.887146,138.317703 267.709442,138.464325 268.772034,139.177429 
	C269.683716,140.475510 270.355011,141.207092 271.026337,141.938675 
	C271.195648,141.962845 271.364990,141.987030 271.785217,142.069214 
	C273.358063,147.140823 274.680084,152.154449 275.997009,157.593445 
z"/>
<path fill="#797BB1" opacity="1.000000" stroke="none" 
	d="
M264.990112,147.989914 
	C263.371155,152.077759 261.743530,156.157242 260.058197,160.604538 
	C258.898834,161.307510 257.797150,161.642670 256.346008,161.975891 
	C256.192291,159.525162 256.388062,157.076355 257.156525,154.224564 
	C259.797668,151.445175 260.589569,147.491943 264.964294,147.964325 
	C264.964294,147.964325 264.981415,147.981552 264.990112,147.989914 
z"/>
<path fill="#7C7B98" opacity="1.000000" stroke="none" 
	d="
M264.990356,147.558838 
	C260.589569,147.491943 259.797668,151.445175 257.408478,153.921341 
	C259.876465,148.822067 262.665192,143.623016 265.759399,138.297516 
	C265.715393,141.165161 265.365906,144.159256 264.990356,147.558838 
z"/>
<path fill="#7C7B98" opacity="1.000000" stroke="none" 
	d="
M270.969025,141.635162 
	C270.355011,141.207092 269.683716,140.475510 268.991089,139.410065 
	C269.617126,139.828018 270.264404,140.579834 270.969025,141.635162 
z"/>
<path fill="#A6C2E3" opacity="1.000000" stroke="none" 
	d="
M275.534271,220.461395 
	C275.552795,220.498672 275.515747,220.424133 275.534271,220.461395 
z"/>
<path fill="#4B4D4F" opacity="1.000000" stroke="none" 
	d="
M211.513367,293.517151 
	C211.484299,293.528564 211.542419,293.505768 211.513367,293.517151 
z"/>
</svg>